<?xml version="1.0" encoding="UTF-8" standalone="no"?>
<svg
   id="vector"
   width="24"
   height="24"
   viewBox="0 0 24 24"
   version="1.1"
   sodipodi:docname="add_gray.svg"
   inkscape:version="1.2.2 (732a01da63, 2022-12-09)"
   xmlns:inkscape="http://www.inkscape.org/namespaces/inkscape"
   xmlns:sodipodi="http://sodipodi.sourceforge.net/DTD/sodipodi-0.dtd"
   xmlns="http://www.w3.org/2000/svg"
   xmlns:svg="http://www.w3.org/2000/svg">
  <defs
     id="defs5363" />
  <sodipodi:namedview
     id="namedview5361"
     pagecolor="#ffffff"
     bordercolor="#000000"
     borderopacity="0.25"
     inkscape:showpageshadow="2"
     inkscape:pageopacity="0.0"
     inkscape:pagecheckerboard="0"
     inkscape:deskcolor="#d1d1d1"
     showgrid="false"
     inkscape:zoom="20.304066"
     inkscape:cx="16.252902"
     inkscape:cy="15.391006"
     inkscape:window-width="1920"
     inkscape:window-height="991"
     inkscape:window-x="-9"
     inkscape:window-y="-9"
     inkscape:window-maximized="1"
     inkscape:current-layer="vector" />
  <path
     fill="#667781"
     d="m 20.571429,13.428571 h -7.142858 v 7.142858 C 13.428571,21.357143 12.785714,22 12,22 11.214286,22 10.571429,21.357143 10.571429,20.571429 V 13.428571 H 3.4285714 C 2.6428571,13.428571 2,12.785714 2,12 2,11.214286 2.6428571,10.571429 3.4285714,10.571429 H 10.571429 V 3.4285714 C 10.571429,2.6428571 11.214286,2 12,2 c 0.785714,0 1.428571,0.6428571 1.428571,1.4285714 v 7.1428576 h 7.142858 C 21.357143,10.571429 22,11.214286 22,12 c 0,0.785714 -0.642857,1.428571 -1.428571,1.428571 z"
     id="path_0"
     style="stroke-width:1.42857" />
</svg>
