<?xml version="1.0" encoding="UTF-8" standalone="no"?>
<svg
   id="vector"
   width="24"
   height="24"
   viewBox="0 0 24 24"
   version="1.1"
   sodipodi:docname="arrow_drop_up.svg"
   inkscape:version="1.2.2 (732a01da63, 2022-12-09)"
   xmlns:inkscape="http://www.inkscape.org/namespaces/inkscape"
   xmlns:sodipodi="http://sodipodi.sourceforge.net/DTD/sodipodi-0.dtd"
   xmlns="http://www.w3.org/2000/svg"
   xmlns:svg="http://www.w3.org/2000/svg">
  <defs
     id="defs22980" />
  <sodipodi:namedview
     id="namedview22978"
     pagecolor="#ffffff"
     bordercolor="#000000"
     borderopacity="0.25"
     inkscape:showpageshadow="2"
     inkscape:pageopacity="0.0"
     inkscape:pagecheckerboard="0"
     inkscape:deskcolor="#d1d1d1"
     showgrid="false"
     inkscape:zoom="16.75"
     inkscape:cx="24"
     inkscape:cy="24.029851"
     inkscape:window-width="1920"
     inkscape:window-height="991"
     inkscape:window-x="-9"
     inkscape:window-y="-9"
     inkscape:window-maximized="1"
     inkscape:current-layer="vector" />
  <path
     fill="#ffffff"
     d="m 2.4182589,17.256907 c -0.263432,-0.263432 -0.402436,-0.570768 -0.4171,-0.92201 -0.01466,-0.351242 0.109763,-0.658579 0.373195,-0.922011 L 11.067593,6.719647 c 0.14638,-0.14638 0.292672,-0.248767 0.439052,-0.307337 0.14638,-0.05857 0.307337,-0.08781 0.482958,-0.08781 0.175621,0 0.336578,0.02924 0.482958,0.08781 0.14638,0.05857 0.292672,0.160957 0.439052,0.307337 l 8.693239,8.649334 c 0.263432,0.234191 0.395147,0.534151 0.395147,0.900058 0,0.365906 -0.131715,0.680531 -0.395147,0.943962 -0.263431,0.263432 -0.578056,0.395148 -0.943963,0.395148 -0.365906,0 -0.680531,-0.131716 -0.943962,-0.395148 L 11.989603,9.529583 4.2622789,17.300812 c -0.23419,0.263431 -0.534151,0.387859 -0.900057,0.373195 -0.365907,-0.01466 -0.680532,-0.153669 -0.943963,-0.4171 z"
     id="path_0"
     style="stroke-width:0.878105" />
</svg>
