<?xml version="1.0" encoding="UTF-8" standalone="no"?>
<svg
   viewBox="0 0 24 24"
   height="24"
   width="24"
   preserveAspectRatio="xMidYMid meet"
   class=""
   version="1.1"
   x="0px"
   y="0px"
   enable-background="new 0 0 24 24"
   xml:space="preserve"
   id="svg34043"
   sodipodi:docname="attach.svg"
   inkscape:version="1.2.2 (732a01da63, 2022-12-09)"
   xmlns:inkscape="http://www.inkscape.org/namespaces/inkscape"
   xmlns:sodipodi="http://sodipodi.sourceforge.net/DTD/sodipodi-0.dtd"
   xmlns="http://www.w3.org/2000/svg"
   xmlns:svg="http://www.w3.org/2000/svg"><defs
   id="defs34047" /><sodipodi:namedview
   id="namedview34045"
   pagecolor="#ffffff"
   bordercolor="#000000"
   borderopacity="0.25"
   inkscape:showpageshadow="2"
   inkscape:pageopacity="0.0"
   inkscape:pagecheckerboard="0"
   inkscape:deskcolor="#d1d1d1"
   showgrid="false"
   inkscape:zoom="33.5"
   inkscape:cx="12"
   inkscape:cy="12.014925"
   inkscape:window-width="1920"
   inkscape:window-height="991"
   inkscape:window-x="-9"
   inkscape:window-y="-9"
   inkscape:window-maximized="1"
   inkscape:current-layer="svg34043" />
    <path
   fill="#ffffff"
   d="m 2,15.336015 v 0.002 c 0,1.486408 0.5779378,2.881772 1.6289137,3.930768 1.0509759,1.048997 2.4463394,1.629904 3.9327479,1.629904 1.4854189,0 2.8797924,-0.577938 3.9307684,-1.627924 L 20.940328,9.8218548 C 21.701345,9.0618271 22.075421,8.0731972 21.987345,7.0340967 21.909165,6.076145 21.445034,5.1270999 20.682037,4.3641033 19.104584,2.788629 16.656265,2.6708643 15.222306,4.104823 l -7.8338278,7.832838 c -0.8718548,0.871855 -0.7837786,2.226644 0.2117786,3.227149 0.9490451,0.948056 2.397848,1.04207 3.2291282,0.212769 0,0 3.777378,-3.778368 5.453793,-5.4547828 0.277094,-0.2770936 0.264229,-0.7145055 0.05245,-0.926284 C 16.256459,8.9173426 16.173331,8.8342146 16.094161,8.755045 15.905144,8.5660277 15.533047,8.4096678 15.147095,8.7946298 13.465732,10.475993 9.6982501,14.243475 9.6982501,14.243475 9.5201186,14.421606 9.0698417,14.369156 8.7323815,14.031696 8.6353988,13.935703 8.1623606,13.425059 8.5215925,13.068796 L 16.354431,5.2339788 c 0.809509,-0.8085191 2.243467,-0.691744 3.196471,0.2592803 0.49481,0.4957994 0.793675,1.0885815 0.840187,1.6675089 0.05047,0.567052 -0.154381,1.0994673 -0.582886,1.5269829 l -9.447897,9.4498761 c -0.7481528,0.749142 -1.7427204,1.158845 -2.799634,1.158845 -1.0588929,0 -2.0524709,-0.412672 -2.8006232,-1.160824 C 4.0128861,17.388485 3.6002147,16.394907 3.6002147,15.337004 v 0 c 0,-1.059882 0.4106921,-2.05445 1.1598341,-2.800623 0,0 5.2667552,-5.2687341 7.1341672,-7.1361461 0.15537,-0.1553703 0.261259,-0.5729897 0.02771,-0.8055503 C 11.786347,4.4591067 11.714105,4.3868645 11.583475,4.2562347 11.385551,4.0583108 11.036216,3.9959648 10.758133,4.2740479 8.8828036,6.1493769 3.6279241,11.406235 3.6279241,11.406235 2.5779378,12.455232 2,13.851585 2,15.336015 Z"
   id="path34041"
   style="stroke-width:0.989619;fill:#ffffff;fill-opacity:1">
    </path>
</svg>
