<?xml version="1.0" encoding="UTF-8" standalone="no"?>
<svg
   viewBox="0 0 24 24"
   height="24"
   width="24"
   preserveAspectRatio="xMidYMid"
   class=""
   version="1.1"
   x="0px"
   y="0px"
   enable-background="new 0 0 53 53"
   xml:space="preserve"
   id="svg46"
   sodipodi:docname="attach_media.svg"
   inkscape:version="1.2.2 (732a01da63, 2022-12-09)"
   xmlns:inkscape="http://www.inkscape.org/namespaces/inkscape"
   xmlns:sodipodi="http://sodipodi.sourceforge.net/DTD/sodipodi-0.dtd"
   xmlns="http://www.w3.org/2000/svg"
   xmlns:svg="http://www.w3.org/2000/svg"><defs
   id="defs50" /><sodipodi:namedview
   id="namedview48"
   pagecolor="#ffffff"
   bordercolor="#000000"
   borderopacity="0.25"
   inkscape:showpageshadow="2"
   inkscape:pageopacity="0.0"
   inkscape:pagecheckerboard="0"
   inkscape:deskcolor="#d1d1d1"
   showgrid="false"
   inkscape:zoom="15.169811"
   inkscape:cx="26.5"
   inkscape:cy="14.86505"
   inkscape:window-width="1920"
   inkscape:window-height="991"
   inkscape:window-x="-9"
   inkscape:window-y="-9"
   inkscape:window-maximized="1"
   inkscape:current-layer="svg46" />
    <g
   id="g41">
        <defs
   id="defs28">
            <circle
   id="image-SVGID_1_"
   cx="26.5"
   cy="26.5"
   r="25.5" />
        </defs>
        <clipPath
   id="image-SVGID_2_">
            <use
   href="#image-SVGID_1_"
   overflow="visible"
   id="use30" />
        </clipPath>
    </g>
    <g
   fill="#f5f5f5"
   id="g44"
   transform="translate(-14.5,-14.5)"
   style="fill:#ffffff;fill-opacity:1">
        <path
   id="svg-image"
   d="m 18.318,18.25 h 16.364 c 0.863,0 1.727,0.827 1.811,1.696 l 0.007,0.137 v 12.834 c 0,0.871 -0.82,1.741 -1.682,1.826 L 34.682,34.75 H 18.318 c -0.95,0 -1.736,-0.745 -1.812,-1.684 L 16.5,32.917 V 20.083 c 0,-0.87 0.82,-1.741 1.682,-1.826 l 0.136,-0.007 h 16.364 z m 5.081,8.22 -3.781,5.044 c -0.269,0.355 -0.052,0.736 0.39,0.736 h 12.955 c 0.442,-0.011 0.701,-0.402 0.421,-0.758 l -2.682,-3.449 c -0.216,-0.269 -0.625,-0.28 -0.841,-0.011 l -2.262,2.727 -3.339,-4.3 c -0.215,-0.28 -0.646,-0.28 -0.861,0.011 z M 31.75,21.25 C 30.784,21.25 30,22.034 30,23 c 0,0.966 0.784,1.75 1.75,1.75 0.966,0 1.75,-0.784 1.75,-1.75 0,-0.966 -0.784,-1.75 -1.75,-1.75 z"
   style="fill:#ffffff;fill-opacity:1">
        </path>
    </g>
</svg>
