<?xml version="1.0" encoding="UTF-8" standalone="no"?>
<svg
   id="vector"
   width="24"
   height="24"
   viewBox="0 0 24 24"
   version="1.1"
   sodipodi:docname="audio_visual.svg"
   inkscape:version="1.2.2 (732a01da63, 2022-12-09)"
   xmlns:inkscape="http://www.inkscape.org/namespaces/inkscape"
   xmlns:sodipodi="http://sodipodi.sourceforge.net/DTD/sodipodi-0.dtd"
   xmlns="http://www.w3.org/2000/svg"
   xmlns:svg="http://www.w3.org/2000/svg">
  <defs
     id="defs8092" />
  <sodipodi:namedview
     id="namedview8090"
     pagecolor="#ffffff"
     bordercolor="#000000"
     borderopacity="0.25"
     inkscape:showpageshadow="2"
     inkscape:pageopacity="0.0"
     inkscape:pagecheckerboard="0"
     inkscape:deskcolor="#d1d1d1"
     showgrid="false"
     inkscape:zoom="30.923077"
     inkscape:cx="11.997512"
     inkscape:cy="13.016169"
     inkscape:window-width="1920"
     inkscape:window-height="991"
     inkscape:window-x="-9"
     inkscape:window-y="-9"
     inkscape:window-maximized="1"
     inkscape:current-layer="vector" />
  <path
     fill="#ffffff"
     d="m 10.417783,22 c 0.431877,0 0.769526,-0.337649 0.769526,-0.761674 V 2.7618429 A 0.76167398,0.76167398 0 0 0 10.417783,2.0001689 0.74596936,0.74596936 0 0 0 9.6561088,2.7618429 V 21.238326 C 9.6561088,21.662351 9.9859057,22 10.417783,22 Z m 6.321109,-2.159385 c 0.439729,0 0.761673,-0.353354 0.761673,-0.777379 V 4.9447848 A 0.76167398,0.76167398 0 0 0 16.738892,4.1752585 0.76167398,0.76167398 0 0 0 15.969365,4.9447848 V 19.055384 c 0,0.424025 0.321945,0.777379 0.769527,0.777379 z m -9.4855898,-1.76677 c 0.4475816,0 0.7773786,-0.337649 0.7773786,-0.761674 V 6.6958497 A 0.75382167,0.75382167 0 0 0 7.2533022,5.9341757 0.74596936,0.74596936 0 0 0 6.4994805,6.6958497 V 17.312171 c 0,0.424025 0.3219447,0.753822 0.7538217,0.753822 z m 6.3289608,-1.177846 c 0.431877,0 0.753822,-0.337649 0.753822,-0.761674 V 7.8658437 A 0.74596936,0.74596936 0 0 0 13.582263,7.1120221 0.76167398,0.76167398 0 0 0 12.804885,7.8658437 v 8.2684813 c 0,0.424025 0.337649,0.761674 0.777378,0.761674 z m 6.321109,-1.947373 c 0.431877,0 0.761674,-0.345501 0.761674,-0.769526 V 9.8210687 A 0.76167398,0.76167398 0 0 0 19.903372,9.0515424 0.76167398,0.76167398 0 0 0 19.133846,9.8210687 V 14.1791 c 0,0.424025 0.321944,0.769526 0.769526,0.769526 z M 4.1045263,14.092725 c 0.4397293,0 0.761674,-0.33765 0.761674,-0.761674 V 10.669118 A 0.74596936,0.74596936 0 0 0 4.1045263,9.9152964 0.75382167,0.75382167 0 0 0 3.335,10.669118 v 2.669785 c 0,0.416172 0.329797,0.753822 0.7695263,0.753822 z"
     id="path_0"
     style="fill:#ffffff;fill-opacity:1;stroke-width:0.785231" />
</svg>
