<?xml version="1.0" encoding="UTF-8" standalone="no"?>
<svg
   id="vector"
   width="24"
   height="24"
   viewBox="0 0 24 24"
   version="1.1"
   sodipodi:docname="bug.svg"
   inkscape:version="1.2.2 (732a01da63, 2022-12-09)"
   xmlns:inkscape="http://www.inkscape.org/namespaces/inkscape"
   xmlns:sodipodi="http://sodipodi.sourceforge.net/DTD/sodipodi-0.dtd"
   xmlns="http://www.w3.org/2000/svg"
   xmlns:svg="http://www.w3.org/2000/svg">
  <defs
     id="defs15032" />
  <sodipodi:namedview
     id="namedview15030"
     pagecolor="#ffffff"
     bordercolor="#000000"
     borderopacity="0.25"
     inkscape:showpageshadow="2"
     inkscape:pageopacity="0.0"
     inkscape:pagecheckerboard="0"
     inkscape:deskcolor="#d1d1d1"
     showgrid="false"
     inkscape:zoom="33.5"
     inkscape:cx="12"
     inkscape:cy="12.014925"
     inkscape:window-width="1920"
     inkscape:window-height="991"
     inkscape:window-x="-9"
     inkscape:window-y="-9"
     inkscape:window-maximized="1"
     inkscape:current-layer="vector" />
  <path
     fill="#ffffff"
     d="M 19.958206,7.2205548 H 17.900452 C 17.388856,6.3337881 16.68399,5.5720782 15.83133,4.9922692 l 1.057299,-1.0572988 c 0.443383,-0.4433833 0.443383,-1.159618 0,-1.6030013 C 16.676032,2.1193724 16.387265,2 16.087128,2 c -0.301273,0 -0.588904,0.1193724 -0.8015,0.3319691 l -1.671215,1.6712142 c -0.522965,-0.1250569 -1.057298,-0.1932697 -1.61437,-0.1932697 -0.557071,0 -1.091405,0.068213 -1.603001,0.1932697 L 8.7144588,2.3319691 C 8.5018622,2.1193724 8.2142315,2 7.9129582,2 7.6116849,2 7.3240541,2.1193724 7.1114575,2.3319691 c -0.4433834,0.4433833 -0.4433834,1.159618 0,1.6030013 L 8.1573874,4.9922692 C 7.316096,5.5720782 6.6112301,6.3337881 6.0996339,7.2205548 H 4.0418804 C 3.4165962,7.2205548 2.905,7.732151 2.905,8.3574352 2.905,8.982719 3.4165962,9.494316 4.0418804,9.494316 H 5.28108 c -0.056844,0.37517 -0.1023192,0.750341 -0.1023192,1.13688 v 1.13688 H 4.0418804 c -0.6252842,0 -1.1368804,0.511597 -1.1368804,1.136881 0,0.625284 0.5115962,1.13688 1.1368804,1.13688 h 1.1368804 v 1.136881 c 0,0.386539 0.045475,0.761709 0.1023192,1.13688 H 4.0418804 c -0.6252842,0 -1.1368804,0.511596 -1.1368804,1.13688 0,0.625285 0.5115962,1.136881 1.1368804,1.136881 H 6.0996339 C 7.2819895,20.624375 9.476169,22 12.000043,22 c 2.523875,0 4.718054,-1.375625 5.900409,-3.410641 h 2.057754 c 0.625284,0 1.13688,-0.511596 1.13688,-1.136881 0,-0.625284 -0.511596,-1.13688 -1.13688,-1.13688 h -1.2392 c 0.05684,-0.375171 0.10232,-0.750341 0.10232,-1.13688 v -1.136881 h 1.13688 c 0.625284,0 1.13688,-0.511596 1.13688,-1.13688 0,-0.625284 -0.511596,-1.136881 -1.13688,-1.136881 h -1.13688 v -1.13688 c 0,-0.386539 -0.04548,-0.76171 -0.10232,-1.13688 h 1.2392 c 0.625284,0 1.13688,-0.511597 1.13688,-1.1368808 0,-0.6252842 -0.511596,-1.1368804 -1.13688,-1.1368804 z m -9.095043,9.0950432 c -0.625284,0 -1.136881,-0.511596 -1.136881,-1.13688 0,-0.625285 0.511597,-1.136881 1.136881,-1.136881 h 2.273761 c 0.625284,0 1.13688,0.511596 1.13688,1.136881 0,0.625284 -0.511596,1.13688 -1.13688,1.13688 z m 0,-4.547522 h 2.273761 c 0.625284,0 1.13688,-0.511596 1.13688,-1.13688 0,-0.625284 -0.511596,-1.13688 -1.13688,-1.13688 h -2.273761 c -0.625284,0 -1.136881,0.511596 -1.136881,1.13688 0,0.625284 0.511597,1.13688 1.136881,1.13688 z"
     fill-rule="1"
     id="path_0"
     style="stroke-width:1.13688" />
</svg>
