<?xml version="1.0" encoding="UTF-8" standalone="no"?>
<svg
   id="vector"
   width="24"
   height="24"
   viewBox="0 0 24 24"
   version="1.1"
   sodipodi:docname="bulb_shine.svg"
   inkscape:version="1.2.2 (732a01da63, 2022-12-09)"
   xmlns:inkscape="http://www.inkscape.org/namespaces/inkscape"
   xmlns:sodipodi="http://sodipodi.sourceforge.net/DTD/sodipodi-0.dtd"
   xmlns="http://www.w3.org/2000/svg"
   xmlns:svg="http://www.w3.org/2000/svg">
  <defs
     id="defs17706" />
  <sodipodi:namedview
     id="namedview17704"
     pagecolor="#ffffff"
     bordercolor="#000000"
     borderopacity="0.25"
     inkscape:showpageshadow="2"
     inkscape:pageopacity="0.0"
     inkscape:pagecheckerboard="0"
     inkscape:deskcolor="#d1d1d1"
     showgrid="false"
     inkscape:zoom="12.920769"
     inkscape:cx="4.9532654"
     inkscape:cy="29.371316"
     inkscape:window-width="1920"
     inkscape:window-height="991"
     inkscape:window-x="-9"
     inkscape:window-y="-9"
     inkscape:window-maximized="1"
     inkscape:current-layer="vector" />
  <path
     fill="#ffffff"
     d="m 6.8888889,19.999778 h 3.5555551 c 0,0.977778 -0.7999996,1.777778 -1.7777773,1.777778 -0.9777778,0 -1.7777778,-0.8 -1.7777778,-1.777778 z M 5.1111111,18.222 c 0,0.488889 0.4,0.888889 0.8888889,0.888889 h 5.333333 c 0.488889,0 0.888889,-0.4 0.888889,-0.888889 0,-0.488889 -0.4,-0.888889 -0.888889,-0.888889 H 6 c -0.4888889,0 -0.8888889,0.4 -0.8888889,0.888889 z M 15.333333,10.666444 c 0,3.395556 -2.364444,5.208889 -3.351111,5.777778 H 5.3511111 C 4.3644444,15.875333 2,14.062 2,10.666444 2,6.9864444 4.9866667,3.9997778 8.6666667,3.9997778 c 3.6800003,0 6.6666663,2.9866666 6.6666663,6.6666662 z m 4.328889,-1.8933329 -1.217778,0.56 1.217778,0.56 0.56,1.2177779 0.56,-1.2177779 1.217778,-0.56 -1.217778,-0.56 -0.56,-1.2177778 z M 17.555556,7.5553333 18.391111,5.7242222 20.222222,4.8886667 18.391111,4.0531111 17.555556,2.222 16.72,4.0531111 14.888889,4.8886667 16.72,5.7242222 Z"
     id="path_0"
     style="stroke-width:0.888889" />
</svg>
