<?xml version="1.0" encoding="UTF-8" standalone="no"?>
<svg
   id="vector"
   width="24"
   height="24"
   viewBox="0 0 24 24"
   version="1.1"
   sodipodi:docname="call.svg"
   inkscape:version="1.2.2 (732a01da63, 2022-12-09)"
   xmlns:inkscape="http://www.inkscape.org/namespaces/inkscape"
   xmlns:sodipodi="http://sodipodi.sourceforge.net/DTD/sodipodi-0.dtd"
   xmlns="http://www.w3.org/2000/svg"
   xmlns:svg="http://www.w3.org/2000/svg">
  <defs
     id="defs19654" />
  <sodipodi:namedview
     id="namedview19652"
     pagecolor="#ffffff"
     bordercolor="#000000"
     borderopacity="0.25"
     inkscape:showpageshadow="2"
     inkscape:pageopacity="0.0"
     inkscape:pagecheckerboard="0"
     inkscape:deskcolor="#d1d1d1"
     showgrid="false"
     inkscape:zoom="16.75"
     inkscape:cx="24"
     inkscape:cy="24.029851"
     inkscape:window-width="1920"
     inkscape:window-height="991"
     inkscape:window-x="-9"
     inkscape:window-y="-9"
     inkscape:window-maximized="1"
     inkscape:current-layer="vector" />
  <path
     fill="#ffffff"
     d="m 20.040468,15.638633 -2.827953,-0.32286 c -0.67912,-0.07795 -1.347134,0.155856 -1.825891,0.634613 l -2.04859,2.048549 C 10.187262,16.395701 7.6042612,13.823847 6.0010276,10.661929 L 8.0607235,8.6022326 C 8.5394807,8.1234754 8.7732856,7.4554614 8.6953367,6.7762999 L 8.3724772,3.9706412 C 8.2388744,2.846165 7.2925074,2 6.1568836,2 H 4.2307906 C 2.9727115,2 1.9261424,3.0465691 2.0040913,4.3046482 2.5941564,13.812742 10.198368,21.405806 19.695314,21.995913 c 1.258079,0.07791 2.304648,-0.96862 2.304648,-2.226741 v -1.926093 c 0.01115,-1.124477 -0.835017,-2.070844 -1.959494,-2.204446 z"
     id="path_0"
     style="stroke-width:0.417509" />
</svg>
