<?xml version="1.0" encoding="UTF-8" standalone="no"?>
<svg
   id="vector"
   width="24"
   height="24"
   viewBox="0 0 24 24"
   version="1.1"
   sodipodi:docname="call_add.svg"
   inkscape:version="1.2.2 (732a01da63, 2022-12-09)"
   xmlns:inkscape="http://www.inkscape.org/namespaces/inkscape"
   xmlns:sodipodi="http://sodipodi.sourceforge.net/DTD/sodipodi-0.dtd"
   xmlns="http://www.w3.org/2000/svg"
   xmlns:svg="http://www.w3.org/2000/svg">
  <defs
     id="defs21969" />
  <sodipodi:namedview
     id="namedview21967"
     pagecolor="#ffffff"
     bordercolor="#000000"
     borderopacity="0.25"
     inkscape:showpageshadow="2"
     inkscape:pageopacity="0.0"
     inkscape:pagecheckerboard="0"
     inkscape:deskcolor="#d1d1d1"
     showgrid="false"
     inkscape:zoom="16.75"
     inkscape:cx="24"
     inkscape:cy="24.029851"
     inkscape:window-width="1920"
     inkscape:window-height="991"
     inkscape:window-x="-9"
     inkscape:window-y="-9"
     inkscape:window-maximized="1"
     inkscape:current-layer="vector" />
  <path
     fill="white"
     d="m 20.040468,15.638633 -2.827953,-0.32286 c -0.67912,-0.07795 -1.347134,0.155856 -1.825891,0.634613 l -2.04859,2.048549 C 10.187262,16.395701 7.6042612,13.823847 6.0010276,10.661929 L 8.0607235,8.6022326 C 8.5394807,8.1234754 8.7732856,7.4554614 8.6953367,6.7762999 L 8.3724772,3.9706412 C 8.2388744,2.846165 7.2925074,2 6.1568836,2 H 4.2307906 C 2.9727115,2 1.9261424,3.0465691 2.0040913,4.3046482 2.5941564,13.812742 10.198368,21.405806 19.695314,21.995913 c 1.258079,0.07791 2.304648,-0.96862 2.304648,-2.226741 v -1.926093 c 0.01115,-1.124477 -0.835017,-2.070844 -1.959494,-2.204446 z"
     id="path24271"
     style="fill:#ffffff;fill-opacity:1;stroke-width:0.417509" />
  <g
     style="fill:#ffffff;fill-opacity:1"
     id="g1215"
     transform="matrix(0.38085235,0,0,0.38080845,13.244457,3.8104091)">
    <path
       d="M 0.779492,9.77945 C 0.345435,9.34539 0.354642,8.64524 0.789127,8.21075 1.00194,7.99794 1.27674,7.88259 1.57806,7.90017 L 7.88829,7.87934 7.90025,1.57797 C 7.89154,1.26779 7.99803,1.00185 8.21083,0.789044 8.64532,0.354559 9.32774,0.363086 9.7618,0.797143 9.99211,1.02746 10.0895,1.2667 10.0805,1.59463 l 0.0057,6.30135 6.3191,0.00575 c 0.3545,-1.7e-4 0.5938,0.0972 0.8063,0.3098 0.4341,0.43405 0.4426,1.1342 0.0081,1.56869 -0.2128,0.2128 -0.4698,0.31038 -0.7889,0.31058 l -6.3191,0.012 -0.0119,6.3013 c 0.0087,0.3102 -0.0978,0.5762 -0.31949,0.7978 -0.43449,0.4345 -1.13464,0.4437 -1.57756,8e-4 C 7.97244,16.9724 7.87508,16.6977 7.8841,16.3875 L 7.8872,10.095 1.60356,10.107 C 1.27564,10.116 1.00981,10.0098 0.779492,9.77945 Z"
       fill="#ffffff"
       id="path24274"
       style="fill:#ffffff;fill-opacity:1" />
  </g>
</svg>
