<?xml version="1.0" encoding="UTF-8" standalone="no"?>
<svg
   viewBox="0 0 24 24"
   version="1.1"
   id="svg6816"
   sodipodi:docname="camera_fill.svg"
   width="24"
   height="24"
   inkscape:version="1.2.2 (732a01da63, 2022-12-09)"
   xmlns:inkscape="http://www.inkscape.org/namespaces/inkscape"
   xmlns:sodipodi="http://sodipodi.sourceforge.net/DTD/sodipodi-0.dtd"
   xmlns="http://www.w3.org/2000/svg"
   xmlns:svg="http://www.w3.org/2000/svg">
  <defs
     id="defs6820" />
  <sodipodi:namedview
     id="namedview6818"
     pagecolor="#ffffff"
     bordercolor="#000000"
     borderopacity="0.25"
     inkscape:showpageshadow="2"
     inkscape:pageopacity="0.0"
     inkscape:pagecheckerboard="0"
     inkscape:deskcolor="#d1d1d1"
     showgrid="false"
     inkscape:zoom="15.169811"
     inkscape:cx="10.481343"
     inkscape:cy="9.5254975"
     inkscape:window-width="1920"
     inkscape:window-height="991"
     inkscape:window-x="-9"
     inkscape:window-y="-9"
     inkscape:window-maximized="1"
     inkscape:current-layer="svg6816" />
  <path
     fill="#ffffff"
     id="svg-camera"
     d="m 11.795,0 c 0.947,0 1.839,0.447 2.405,1.206 l 0.3,0.403 c 0.566,0.759 1.458,1.206 2.405,1.206 H 18.2 c 1.546,0 2.8,1.253 2.8,2.8 V 15 c 0,2.209 -1.791,4 -4,4 H 4 C 1.791,19 0,17.209 0,15 V 5.615 c 0,-1.547 1.254,-2.8 2.8,-2.8 H 4.095 C 5.042,2.815 5.934,2.368 6.5,1.609 L 6.8,1.206 C 7.366,0.447 8.258,0 9.205,0 Z M 10.5,5.25 c -2.899,0 -5.25,2.351 -5.25,5.25 0,2.899 2.351,5.25 5.25,5.25 2.899,0 5.25,-2.351 5.25,-5.25 0,-2.899 -2.351,-5.25 -5.25,-5.25 z M 10.5,7 C 12.433,7 14,8.567 14,10.5 14,12.433 12.433,14 10.5,14 8.567,14 7,12.433 7,10.5 7,8.567 8.567,7 10.5,7 Z" />
</svg>
