<?xml version="1.0" encoding="UTF-8" standalone="no"?>
<svg
   viewBox="0 0 24 24"
   version="1.1"
   id="svg6816"
   sodipodi:docname="camera_outline_small.svg"
   width="24"
   height="24"
   inkscape:version="1.2.2 (732a01da63, 2022-12-09)"
   xmlns:inkscape="http://www.inkscape.org/namespaces/inkscape"
   xmlns:sodipodi="http://sodipodi.sourceforge.net/DTD/sodipodi-0.dtd"
   xmlns="http://www.w3.org/2000/svg"
   xmlns:svg="http://www.w3.org/2000/svg">
  <defs
     id="defs6820" />
  <sodipodi:namedview
     id="namedview6818"
     pagecolor="#ffffff"
     bordercolor="#000000"
     borderopacity="0.25"
     inkscape:showpageshadow="2"
     inkscape:pageopacity="0.0"
     inkscape:pagecheckerboard="0"
     inkscape:deskcolor="#d1d1d1"
     showgrid="false"
     inkscape:zoom="15.169811"
     inkscape:cx="10.481344"
     inkscape:cy="9.5254977"
     inkscape:window-width="1920"
     inkscape:window-height="991"
     inkscape:window-x="-9"
     inkscape:window-y="-9"
     inkscape:window-maximized="1"
     inkscape:current-layer="svg6816" />
  <path
     fill="white"
     fill-rule="evenodd"
     d="m 10.767578,1.953125 c -1.2165816,0 -2.3661914,0.5751331 -3.0937499,1.5507813 L 7.3886719,3.8867188 C 7.0381362,4.3567834 6.4876169,4.6328125 5.9003906,4.6328125 H 4.6660156 C 2.6533176,4.6328125 1,6.2870492 1,8.3007813 v 8.9374997 c 0,2.644324 2.1642709,4.808594 4.8085937,4.808594 H 18.191406 C 20.835729,22.046875 23,19.882604 23,17.238281 V 8.3007813 C 23,6.287049 21.346682,4.6328125 19.333984,4.6328125 h -1.234375 c -0.587226,0 -1.137746,-0.2760297 -1.488281,-0.7460937 L 16.326172,3.5039063 C 15.598613,2.5282583 14.449004,1.953125 13.232422,1.953125 Z m 0,2 h 2.464844 c 0.587226,0 1.139698,0.2760289 1.490234,0.7460937 l 0.285157,0.3828125 c 0.727558,0.9756487 1.875215,1.5507813 3.091796,1.5507813 h 1.234375 C 20.266045,6.6328125 21,7.3678498 21,8.3007813 v 8.9374997 c 0,1.563293 -1.245301,2.808594 -2.808594,2.808594 H 5.8085937 C 4.2453018,20.046875 3,18.801574 3,17.238281 V 8.3007813 C 3,7.3678497 3.7339546,6.6328125 4.6660156,6.6328125 h 1.234375 c 1.2165815,0 2.3642385,-0.5751331 3.0917969,-1.5507813 L 9.2792969,4.6972656 C 9.6299106,4.2285489 10.181275,3.953125 10.767578,3.953125 Z"
     id="svg-camera" />
  <path
     fill="white"
     d="M 12,7.9525 c -2.7609524,0 -5,2.239048 -5,5 0,2.760952 2.2390476,5 5,5 2.760952,0 5,-2.239048 5,-5 0,-2.760952 -2.239048,-5 -5,-5 z m 0,1.6666667 c 1.840952,0 3.333333,1.4923813 3.333333,3.3333333 0,1.840952 -1.492381,3.333333 -3.333333,3.333333 -1.840952,0 -3.3333333,-1.492381 -3.3333333,-3.333333 0,-1.840952 1.4923813,-3.3333333 3.3333333,-3.3333333 z"
     id="path8709" />
</svg>
