<?xml version="1.0" encoding="UTF-8" standalone="no"?>
<svg
   viewBox="0 0 24 24"
   version="1.1"
   id="svg6816"
   sodipodi:docname="camera_fill.svg"
   width="24"
   height="24"
   inkscape:version="1.2.2 (732a01da63, 2022-12-09)"
   xmlns:inkscape="http://www.inkscape.org/namespaces/inkscape"
   xmlns:sodipodi="http://sodipodi.sourceforge.net/DTD/sodipodi-0.dtd"
   xmlns="http://www.w3.org/2000/svg"
   xmlns:svg="http://www.w3.org/2000/svg">
  <defs
     id="defs6820" />
  <sodipodi:namedview
     id="namedview6818"
     pagecolor="#ffffff"
     bordercolor="#000000"
     borderopacity="0.25"
     inkscape:showpageshadow="2"
     inkscape:pageopacity="0.0"
     inkscape:pagecheckerboard="0"
     inkscape:deskcolor="#d1d1d1"
     showgrid="false"
     inkscape:zoom="15.169811"
     inkscape:cx="10.481344"
     inkscape:cy="9.5254977"
     inkscape:window-width="1920"
     inkscape:window-height="991"
     inkscape:window-x="-9"
     inkscape:window-y="-9"
     inkscape:window-maximized="1"
     inkscape:current-layer="svg6816" />
  <path
     fill="#ffffff"
     id="svg-camera"
     d="m 13.233333,2.9525 c 0.901905,0 1.751429,0.4257143 2.290477,1.1485714 L 15.809524,4.484881 C 16.348571,5.2077381 17.198095,5.6334524 18.1,5.6334524 h 1.233333 C 20.805714,5.6334524 22,6.8267857 22,8.300119 v 8.938095 c 0,2.10381 -1.705714,3.809524 -3.809524,3.809524 H 5.8095238 C 3.7057143,21.047738 2,19.342024 2,17.238214 V 8.300119 C 2,6.8267857 3.1942857,5.6334524 4.6666667,5.6334524 H 5.9 c 0.9019048,0 1.7514286,-0.4257143 2.2904762,-1.1485714 L 8.4761905,4.1010714 C 9.0152381,3.3782143 9.8647619,2.9525 10.766667,2.9525 Z M 12,7.9525 c -2.7609524,0 -5,2.239048 -5,5 0,2.760952 2.2390476,5 5,5 2.760952,0 5,-2.239048 5,-5 0,-2.760952 -2.239048,-5 -5,-5 z m 0,1.6666667 c 1.840952,0 3.333333,1.4923813 3.333333,3.3333333 0,1.840952 -1.492381,3.333333 -3.333333,3.333333 -1.840952,0 -3.3333333,-1.492381 -3.3333333,-3.333333 0,-1.840952 1.4923813,-3.3333333 3.3333333,-3.3333333 z"
     style="stroke-width:0.952381;fill:#ffffff;fill-opacity:1" />
</svg>
