<?xml version="1.0" encoding="UTF-8" standalone="no"?>
<svg
   viewBox="0 0 24 24"
   version="1.1"
   id="svg9492"
   sodipodi:docname="camera_outline.svg"
   width="24"
   height="24"
   inkscape:version="1.2.2 (732a01da63, 2022-12-09)"
   xmlns:inkscape="http://www.inkscape.org/namespaces/inkscape"
   xmlns:sodipodi="http://sodipodi.sourceforge.net/DTD/sodipodi-0.dtd"
   xmlns="http://www.w3.org/2000/svg"
   xmlns:svg="http://www.w3.org/2000/svg">
  <defs
     id="defs9496" />
  <sodipodi:namedview
     id="namedview9494"
     pagecolor="#ffffff"
     bordercolor="#000000"
     borderopacity="0.25"
     inkscape:showpageshadow="2"
     inkscape:pageopacity="0.0"
     inkscape:pagecheckerboard="0"
     inkscape:deskcolor="#d1d1d1"
     showgrid="false"
     inkscape:zoom="15.169811"
     inkscape:cx="11.008707"
     inkscape:cy="10.118781"
     inkscape:window-width="1920"
     inkscape:window-height="991"
     inkscape:window-x="-9"
     inkscape:window-y="-9"
     inkscape:window-maximized="1"
     inkscape:current-layer="svg9492" />
  <g
     id="svg-camera"
     style="stroke-width:0;stroke-dasharray:none;fill:#ffffff;fill-opacity:1">
    <path
       style="color:#000000;fill:#ffffff;fill-rule:evenodd;stroke-width:0;stroke-dasharray:none;fill-opacity:1"
       d="m 10.822798,2.9090005 c -1.0039431,0 -1.9512591,0.4735044 -2.551491,1.278409 v 0.00177 L 7.9996451,4.5549521 c -0.428858,0.5750939 -1.10386,0.912642 -1.8217329,0.912642 H 5.0007106 c -1.6510525,0 -3.0007101,1.3487114 -3.0007101,3.0007101 v 8.5316048 c 0,2.253869 1.8370402,4.090909 4.0909089,4.090909 H 17.909091 C 20.16296,21.090818 22,19.253778 22,16.999909 V 8.4683042 C 22,6.8163055 20.650342,5.4675941 18.99929,5.4675941 h -1.177202 c -0.717872,0 -1.392875,-0.3375481 -1.821732,-0.912642 L 15.728694,4.189185 V 4.187405 C 15.128461,3.3825049 14.181146,2.9090005 13.177202,2.9090005 Z m 0,0.9090909 h 2.354404 c 0.717873,0 1.392875,0.3393235 1.821733,0.9144175 l 0.273437,0.365767 c 0.600232,0.8049046 1.545773,1.278409 2.549716,1.278409 h 1.177202 c 1.159854,0 2.091619,0.9308935 2.091619,2.0916193 v 8.5316048 c 0,1.762491 -1.419327,3.181818 -3.181818,3.181818 H 6.0909094 c -1.7624909,0 -3.181818,-1.419327 -3.181818,-3.181818 V 8.4683042 c 0,-1.1607258 0.9317654,-2.0916193 2.0916192,-2.0916193 h 1.1772016 c 1.0039435,0 1.9494839,-0.4735044 2.5497158,-1.278409 L 9.0010655,4.7325089 C 9.4299234,4.1574149 10.104925,3.8180914 10.822798,3.8180914 Z M 12,7.6817275 c -2.8811998,0 -5.2272725,2.3460725 -5.2272725,5.2272725 0,2.8812 2.3460727,5.227273 5.2272725,5.227273 2.8812,0 5.227273,-2.346073 5.227273,-5.227273 C 17.227273,10.0278 14.8812,7.6817275 12,7.6817275 Z m 0,0.9090909 c 2.389704,0 4.318182,1.9284776 4.318182,4.3181816 0,2.389704 -1.928478,4.318182 -4.318182,4.318182 -2.3897038,0 -4.3181816,-1.928478 -4.3181816,-4.318182 0,-2.389704 1.9284778,-4.3181816 4.3181816,-4.3181816 z"
       id="path789" />
    <path
       style="color:#000000;fill:#ffffff;fill-rule:evenodd;stroke-width:0;stroke-dasharray:none;fill-opacity:1"
       d="m 10.822266,2.2597656 c -1.2083216,0 -2.3491377,0.5693551 -3.072266,1.5390625 L 7.6210937,3.9726563 v 0.00195 L 7.4785156,4.1660156 C 7.1721866,4.5767995 6.6918509,4.8183594 6.1777344,4.8183594 H 5 c -2.0050317,0 -3.6503906,1.6443672 -3.6503906,3.6503906 V 17 c 0,2.607059 2.1351284,4.740234 4.7421875,4.740234 H 17.908203 c 2.607059,0 4.742188,-2.133175 4.742188,-4.740234 V 8.46875 C 22.650391,6.4627265 21.005031,4.8183594 19,4.8183594 h -1.177734 c -0.514116,0 -0.994454,-0.2415609 -1.300782,-0.6523438 L 16.378906,3.9746094 v -0.00195 L 16.25,3.7988281 C 15.526871,2.8291266 14.386056,2.2597656 13.177734,2.2597656 Z m 0,2.2089844 h 2.355468 c 0.513045,0 0.994069,0.2410459 1.300782,0.6523437 l 0.273437,0.3652344 c 0.722761,0.9692151 1.861991,1.5410156 3.070313,1.5410156 H 19 c 0.812062,0 1.441406,0.6285368 1.441406,1.4414063 V 17 c 0,1.413528 -1.119675,2.53125 -2.533203,2.53125 H 6.0917969 C 4.678269,19.53125 3.5585937,18.413528 3.5585938,17 V 8.46875 C 3.5585938,7.6558806 4.1879384,7.0273438 5,7.0273437 h 1.1777344 c 1.2083215,0 2.3475514,-0.5718006 3.0703125,-1.5410156 L 9.5214844,5.1210937 C 9.8281966,4.7097958 10.309221,4.46875 10.822266,4.46875 Z M 12,7.03125 c -3.2340466,0 -5.8769531,2.6429063 -5.8769531,5.876953 0,3.234047 2.6429064,5.878906 5.8769531,5.878906 3.234047,0 5.876953,-2.644859 5.876953,-5.878906 C 17.876953,9.6741563 15.234047,7.03125 12,7.03125 Z m 0,2.2089844 c 2.040004,0 3.667969,1.6279646 3.667969,3.6679686 0,2.040004 -1.627965,3.669922 -3.667969,3.669922 -2.0400041,0 -3.6679688,-1.629917 -3.6679687,-3.669922 0,-2.040004 1.6279645,-3.6679686 3.6679687,-3.6679686 z"
       id="path791" />
  </g>
</svg>
