<?xml version="1.0" encoding="UTF-8" standalone="no"?>
<svg
   id="vector"
   width="24"
   height="24"
   viewBox="0 0 24 24"
   version="1.1"
   sodipodi:docname="check_circle_outline.svg"
   inkscape:version="1.2.2 (732a01da63, 2022-12-09)"
   xmlns:inkscape="http://www.inkscape.org/namespaces/inkscape"
   xmlns:sodipodi="http://sodipodi.sourceforge.net/DTD/sodipodi-0.dtd"
   xmlns="http://www.w3.org/2000/svg"
   xmlns:svg="http://www.w3.org/2000/svg">
  <defs
     id="defs11902" />
  <sodipodi:namedview
     id="namedview11900"
     pagecolor="#ffffff"
     bordercolor="#000000"
     borderopacity="0.25"
     inkscape:showpageshadow="2"
     inkscape:pageopacity="0.0"
     inkscape:pagecheckerboard="0"
     inkscape:deskcolor="#d1d1d1"
     showgrid="false"
     inkscape:zoom="14.357143"
     inkscape:cx="28"
     inkscape:cy="28.034826"
     inkscape:window-width="1920"
     inkscape:window-height="991"
     inkscape:window-x="-9"
     inkscape:window-y="-9"
     inkscape:window-maximized="1"
     inkscape:current-layer="vector" />
  <path
     id="path14202"
     d="M 12,2 C 6.4800054,2 2,6.4800054 2,12 2,17.519995 6.4800054,22 12,22 17.519995,22 22,17.519995 22,12 22,6.4800054 17.519995,2 12,2 Z m 0,1.9998605 c 4.409996,0 8.00014,3.5901438 8.00014,8.0001395 0,4.409996 -3.590144,8.00014 -8.00014,8.00014 C 7.5903614,20.00014 4.000558,16.409996 4.000558,12 4.000558,7.5900043 7.5903614,3.9998605 12,3.9998605 Z m 4.590541,3.9976284 c -0.2575,0 -0.5151,0.097272 -0.7101,0.2922711 L 10.00014,14.170061 8.1202568,12.290179 C 7.9334711,12.103036 7.6793246,11.99721 7.4150389,11.99721 c -0.2646425,0 -0.5177343,0.105826 -0.70452,0.292969 -0.3899996,0.389999 -0.3899996,1.019738 0,1.409737 L 9.3005021,16.2899 c 0.3899997,0.389999 1.0197379,0.389999 1.4097379,0 l 6.590402,-6.5897046 c 0.389999,-0.3899997 0.389999,-1.0204358 0,-1.4104354 -0.195,-0.1949996 -0.452601,-0.2922711 -0.710101,-0.2922711 z"
     style="fill:#ffffff;fill-opacity:1;stroke-width:0.357143" />
</svg>
