<svg id="vector" xmlns="http://www.w3.org/2000/svg" width="96" height="96" viewBox="0 0 96 96">
    <g id="group">
        <path fill="none"
            d="M 48 22 C 41.107 22 34.489 24.741 29.615 29.615 C 24.741 34.489 22 41.107 22 48 C 22 54.893 24.741 61.511 29.615 66.385 C 34.489 71.259 41.107 74 48 74 C 54.893 74 61.511 71.259 66.385 66.385 C 71.259 61.511 74 54.893 74 48 C 74 41.107 71.259 34.489 66.385 29.615 C 61.511 24.741 54.893 22 48 22 Z"
            stroke="white" stroke-width="3" stroke-linecap="round" stroke-linejoin="round" />
        <path fill="none" d="M 34 51 L 43 60 L 63 40" stroke="white" stroke-width="3"
            stroke-linecap="round" stroke-linejoin="round" />
        <path fill="none" d="M 48 13 L 48 3" stroke="white" stroke-width="3" stroke-linecap="round"
            stroke-linejoin="round" />
        <path fill="none" d="M 48 83 L 48 93" stroke="white" stroke-width="3"
            stroke-linecap="round" stroke-linejoin="round" />
        <path fill="#000000" d="M 83 48.5 L 93 48.5" stroke="white" stroke-width="3"
            stroke-linecap="round" stroke-linejoin="round" />
        <path fill="none" d="M 13 48.5 L 3 48.5" stroke="white" stroke-width="3"
            stroke-linecap="round" stroke-linejoin="round" />
        <path fill="none" d="M 72.749 23.252 L 79.82 16.18" stroke="white" stroke-width="3"
            stroke-linecap="round" stroke-linejoin="round" />
        <path fill="none" d="M 23.251 72.748 L 16.18 79.819" stroke="white" stroke-width="3"
            stroke-linecap="round" stroke-linejoin="round" />
        <path fill="#000000" d="M 72.395 73.103 L 79.466 80.174" stroke="white" stroke-width="3"
            stroke-linecap="round" stroke-linejoin="round" />
        <path fill="none" d="M 22.898 23.605 L 15.827 16.534" stroke="white" stroke-width="3"
            stroke-linecap="round" stroke-linejoin="round" />
    </g>
</svg>