<?xml version="1.0" encoding="UTF-8" standalone="no"?>
<svg
   id="vector"
   width="24"
   height="24"
   viewBox="0 0 24 24"
   version="1.1"
   sodipodi:docname="circle_shine.svg"
   inkscape:version="1.2.2 (732a01da63, 2022-12-09)"
   xmlns:inkscape="http://www.inkscape.org/namespaces/inkscape"
   xmlns:sodipodi="http://sodipodi.sourceforge.net/DTD/sodipodi-0.dtd"
   xmlns="http://www.w3.org/2000/svg"
   xmlns:svg="http://www.w3.org/2000/svg">
  <sodipodi:namedview
     id="namedview14655"
     pagecolor="#ffffff"
     bordercolor="#000000"
     borderopacity="0.25"
     inkscape:showpageshadow="2"
     inkscape:pageopacity="0.0"
     inkscape:pagecheckerboard="0"
     inkscape:deskcolor="#d1d1d1"
     showgrid="false"
     inkscape:zoom="10.578947"
     inkscape:cx="38"
     inkscape:cy="38.047264"
     inkscape:window-width="1920"
     inkscape:window-height="991"
     inkscape:window-x="-9"
     inkscape:window-y="-9"
     inkscape:window-maximized="1"
     inkscape:current-layer="vector" />
  <defs
     id="defs14643">
    <clipPath
       id="clip_path_0">
      <path
         d="M 0,0 H 76 V 76 H 0 Z"
         id="path14640" />
    </clipPath>
  </defs>
  <g
     id="g_0"
     transform="matrix(0.27586207,0,0,0.27586207,0.89655172,1.5174138)">
    <path
       fill="#ffffff"
       d="M 61,38 C 61,50.703 50.703,61 38,61 25.297,61 15,50.703 15,38 15,25.297 25.297,15 38,15 50.703,15 61,25.297 61,38 Z m -17.694,3.375 2.878,0.328 a 2.246,2.246 0 0 1 1.995,2.244 v 1.96 c 0,1.281 -1.066,2.347 -2.346,2.267 -9.667,-0.6 -17.407,-8.329 -18.007,-18.007 -0.08,-1.28 0.985,-2.346 2.266,-2.346 h 1.96 c 1.157,0 2.12,0.862 2.256,2.006 l 0.328,2.856 a 2.256,2.256 0 0 1 -0.646,1.858 l -2.096,2.097 a 17.05,17.05 0 0 0 7.468,7.468 l 2.085,-2.085 a 2.256,2.256 0 0 1 1.859,-0.646 z"
       fill-rule="1"
       clip-path="url(#clip_path_0)"
       id="path14645" />
    <path
       fill="#ffffff"
       d="M 65.625,13.875 59,11.75 65.625,9.625 67.75,3 69.875,9.625 76.5,11.75 69.875,13.875 67.75,20.5 Z"
       fill-rule="1"
       id="path14647" />
    <path
       fill="#ffffff"
       d="M 7.533,18.134 4,17 7.533,15.867 8.667,12.333 9.8,15.867 13.333,17 9.8,18.134 8.667,21.667 7.533,18.133 Z"
       fill-rule="1"
       id="path14649" />
    <path
       fill="#ffffff"
       d="m 55.525,68.142 -4.858,-1.559 4.858,-1.558 1.558,-4.858 1.559,4.858 4.858,1.558 -4.858,1.559 L 57.083,73 Z"
       fill-rule="1"
       id="path14651" />
  </g>
</svg>
