<?xml version="1.0" encoding="UTF-8" standalone="no"?>
<svg
   id="vector"
   width="24"
   height="24"
   viewBox="0 0 24 24"
   version="1.1"
   sodipodi:docname="circle_white.svg"
   inkscape:version="1.2.2 (732a01da63, 2022-12-09)"
   xmlns:inkscape="http://www.inkscape.org/namespaces/inkscape"
   xmlns:sodipodi="http://sodipodi.sourceforge.net/DTD/sodipodi-0.dtd"
   xmlns="http://www.w3.org/2000/svg"
   xmlns:svg="http://www.w3.org/2000/svg">
  <sodipodi:namedview
     id="namedview17357"
     pagecolor="#ffffff"
     bordercolor="#000000"
     borderopacity="0.25"
     inkscape:showpageshadow="2"
     inkscape:pageopacity="0.0"
     inkscape:pagecheckerboard="0"
     inkscape:deskcolor="#d1d1d1"
     showgrid="false"
     inkscape:zoom="10.578947"
     inkscape:cx="38"
     inkscape:cy="38.047264"
     inkscape:window-width="1920"
     inkscape:window-height="991"
     inkscape:window-x="-9"
     inkscape:window-y="-9"
     inkscape:window-maximized="1"
     inkscape:current-layer="vector" />
  <defs
     id="defs17345">
    <clipPath
       id="clip_path_0">
      <path
         d="M 0,0 H 76 V 76 H 0 Z"
         id="path17342" />
    </clipPath>
  </defs>
  <g
     id="g_0"
     transform="matrix(0.27586207,0,0,0.27586207,0.89655172,1.5174138)">
    <path
       fill="#ffffff"
       d="M 61,38 C 61,50.703 50.703,61 38,61 25.297,61 15,50.703 15,38 15,25.297 25.297,15 38,15 50.703,15 61,25.297 61,38 Z M 26.214,34.764 c 0,-1.68 0,-2.52 0.327,-3.162 a 3,3 0 0 1 1.311,-1.31 c 0.642,-0.328 1.482,-0.328 3.162,-0.328 h 8.615 c 1.68,0 2.52,0 3.162,0.327 a 3,3 0 0 1 1.31,1.311 c 0.328,0.642 0.328,1.482 0.328,3.162 v 6.472 c 0,1.68 0,2.52 -0.327,3.162 a 3,3 0 0 1 -1.311,1.31 c -0.642,0.328 -1.482,0.328 -3.162,0.328 h -8.615 c -1.68,0 -2.52,0 -3.162,-0.327 a 3,3 0 0 1 -1.31,-1.311 c -0.328,-0.642 -0.328,-1.482 -0.328,-3.162 z m 19.993,0.79 a 1,1 0 0 1 0.323,-0.736 l 3.021,-2.777 c 0.641,-0.589 1.677,-0.134 1.677,0.737 v 10.444 c 0,0.871 -1.036,1.326 -1.677,0.737 l -3.02,-2.777 a 1,1 0 0 1 -0.324,-0.736 z"
       fill-rule="1"
       clip-path="url(#clip_path_0)"
       id="path17347" />
    <path
       fill="#ffffff"
       d="M 65.625,13.875 59,11.75 65.625,9.625 67.75,3 69.875,9.625 76.5,11.75 69.875,13.875 67.75,20.5 Z"
       fill-rule="1"
       id="path17349" />
    <path
       fill="#ffffff"
       d="M 7.533,18.134 4,17 7.533,15.867 8.667,12.333 9.8,15.867 13.333,17 9.8,18.134 8.667,21.667 7.533,18.133 Z"
       fill-rule="1"
       id="path17351" />
    <path
       fill="#ffffff"
       d="m 55.525,68.142 -4.858,-1.559 4.858,-1.558 1.558,-4.858 1.559,4.858 4.858,1.558 -4.858,1.559 L 57.083,73 Z"
       fill-rule="1"
       id="path17353" />
  </g>
</svg>
