<?xml version="1.0" encoding="UTF-8" standalone="no"?>
<svg
   id="vector"
   width="24"
   height="24"
   viewBox="0 0 32 32"
   version="1.1"
   sodipodi:docname="clock.svg"
   inkscape:version="1.2.2 (732a01da63, 2022-12-09)"
   xmlns:inkscape="http://www.inkscape.org/namespaces/inkscape"
   xmlns:sodipodi="http://sodipodi.sourceforge.net/DTD/sodipodi-0.dtd"
   xmlns="http://www.w3.org/2000/svg"
   xmlns:svg="http://www.w3.org/2000/svg">
  <defs
     id="defs27563" />
  <sodipodi:namedview
     id="namedview27561"
     pagecolor="#ffffff"
     bordercolor="#000000"
     borderopacity="0.25"
     inkscape:showpageshadow="2"
     inkscape:pageopacity="0.0"
     inkscape:pagecheckerboard="0"
     inkscape:deskcolor="#d1d1d1"
     showgrid="false"
     inkscape:zoom="44.666667"
     inkscape:cx="9"
     inkscape:cy="9.011194"
     inkscape:window-width="1920"
     inkscape:window-height="991"
     inkscape:window-x="-9"
     inkscape:window-y="-9"
     inkscape:window-maximized="1"
     inkscape:current-layer="vector" />
  <path
     fill="#ffffff"
     d="M 15.986667,2.6666667 C 8.6266667,2.6666667 2.6666667,8.64 2.6666667,16 c 0,7.36 5.96,13.333334 13.3200003,13.333334 C 23.36,29.333334 29.333334,23.36 29.333334,16 29.333334,8.64 23.36,2.6666667 15.986667,2.6666667 Z m 5.346667,18.6666673 c -0.52,0.52 -1.36,0.52 -1.88,0 L 15.066667,16.946667 C 14.813334,16.693334 14.666667,16.36 14.666667,16 v -5.333333 c 0,-0.7333336 0.6,-1.3333336 1.333333,-1.3333336 v 0 c 0.733334,0 1.333334,0.6 1.333334,1.3333336 v 4.786667 l 4,4 c 0.52,0.52 0.52,1.36 0,1.88 z"
     id="path_0"
     style="fill:#ffffff;fill-opacity:1;stroke-width:1.33333" />
</svg>
