<?xml version="1.0" encoding="UTF-8" standalone="no"?>
<svg
   viewBox="0 0 24 24"
   height="24"
   width="24"
   preserveAspectRatio="xMidYMid"
   class=""
   version="1.1"
   x="0px"
   y="0px"
   enable-background="new 0 0 16 15"
   xml:space="preserve"
   id="svg29515"
   sodipodi:docname="clock_rounded.svg"
   inkscape:version="1.2.2 (732a01da63, 2022-12-09)"
   xmlns:inkscape="http://www.inkscape.org/namespaces/inkscape"
   xmlns:sodipodi="http://sodipodi.sourceforge.net/DTD/sodipodi-0.dtd"
   xmlns="http://www.w3.org/2000/svg"
   xmlns:svg="http://www.w3.org/2000/svg"><defs
   id="defs29519" /><sodipodi:namedview
   id="namedview29517"
   pagecolor="#ffffff"
   bordercolor="#000000"
   borderopacity="0.25"
   inkscape:showpageshadow="2"
   inkscape:pageopacity="0.0"
   inkscape:pagecheckerboard="0"
   inkscape:deskcolor="#d1d1d1"
   showgrid="false"
   inkscape:zoom="53.6"
   inkscape:cx="8.0037313"
   inkscape:cy="7.5093284"
   inkscape:window-width="1920"
   inkscape:window-height="991"
   inkscape:window-x="-9"
   inkscape:window-y="-9"
   inkscape:window-maximized="1"
   inkscape:current-layer="svg29515" />
    <path
   fill="#ffffff"
   d="M 15.465347,12.421782 H 12.483168 V 7.760396 c 0,-0.5465346 -0.443564,-0.990099 -0.990099,-0.990099 h -0.186138 c -0.546535,0 -0.990099,0.4435644 -0.990099,0.990099 v 5.835644 c 0,0.546534 0.443564,0.990099 0.990099,0.990099 h 0.186138 c 0.002,0 0.004,-0.002 0.0059,-0.002 0.002,0 0.004,0.004 0.0059,0.004 h 3.960397 c 0.546534,0 0.990099,-0.443565 0.990099,-0.990099 v -0.186139 c 0,-0.546534 -0.443565,-0.990099 -0.990099,-0.990099 z M 15.465347,2 H 8.5346535 C 4.9306931,2 2,4.9306931 2,8.5346535 V 15.465347 C 2,19.069307 4.9306931,22 8.5346535,22 H 15.465347 C 19.069307,22 22,19.069307 22,15.465347 V 8.5346535 C 22,4.9306931 19.069307,2 15.465347,2 Z m 3.960396,13.465347 c 0,2.188118 -1.772278,3.960396 -3.960396,3.960396 H 8.5346535 c -2.1861386,0 -3.9603961,-1.772278 -3.9603961,-3.960396 V 8.5346535 c 0,-2.1861386 1.7742575,-3.9603961 3.9603961,-3.9603961 h 6.9306935 c 2.188118,0 3.960396,1.7742575 3.960396,3.9603961 z"
   id="path29513"
   style="stroke-width:1.9802;fill:#ffffff;fill-opacity:1">
    </path>
</svg>
