<?xml version="1.0" encoding="UTF-8" standalone="no"?>
<svg
   id="vector"
   width="24"
   height="24"
   viewBox="0 0 24 24"
   version="1.1"
   sodipodi:docname="close_hexa.svg"
   inkscape:version="1.2.2 (732a01da63, 2022-12-09)"
   xmlns:inkscape="http://www.inkscape.org/namespaces/inkscape"
   xmlns:sodipodi="http://sodipodi.sourceforge.net/DTD/sodipodi-0.dtd"
   xmlns="http://www.w3.org/2000/svg"
   xmlns:svg="http://www.w3.org/2000/svg">
  <defs
     id="defs36811" />
  <sodipodi:namedview
     id="namedview36809"
     pagecolor="#ffffff"
     bordercolor="#000000"
     borderopacity="0.25"
     inkscape:showpageshadow="2"
     inkscape:pageopacity="0.0"
     inkscape:pagecheckerboard="0"
     inkscape:deskcolor="#d1d1d1"
     showgrid="false"
     inkscape:zoom="33.5"
     inkscape:cx="12"
     inkscape:cy="12.014925"
     inkscape:window-width="1920"
     inkscape:window-height="991"
     inkscape:window-x="-9"
     inkscape:window-y="-9"
     inkscape:window-maximized="1"
     inkscape:current-layer="vector" />
  <path
     fill="#ffffff"
     d="M 15.222222,2 H 8.7777778 C 8.1888889,2 7.6222222,2.2333333 7.2,2.6555556 L 2.6444444,7.2111111 C 2.2333333,7.6222222 2,8.1888889 2,8.7777778 v 6.4444442 c 0,0.588889 0.2333333,1.155556 0.6555556,1.566667 l 4.5555555,4.555555 C 7.6222222,21.766667 8.1888889,22 8.7777778,22 h 6.4444442 c 0.588889,0 1.155556,-0.233333 1.566667,-0.655556 l 4.555555,-4.555555 C 21.766667,16.377778 22,15.811111 22,15.222222 V 8.7777778 C 22,8.1888889 21.766667,7.6222222 21.344444,7.2111111 L 16.788889,2.6555556 C 16.377778,2.2333333 15.811111,2 15.222222,2 Z m 0.711111,13.933333 a 1.1066667,1.1066667 0 0 1 -1.566666,0 L 12,13.566667 9.644444,15.922222 A 1.1078006,1.1078006 0 1 1 8.0777778,14.355556 L 10.433333,12 8.0666667,9.644444 A 1.1078006,1.1078006 0 1 1 9.633333,8.0777778 L 12,10.433333 14.355556,8.0777778 A 1.1078006,1.1078006 0 1 1 15.922222,9.644444 L 13.566667,12 l 2.355555,2.355556 c 0.444445,0.433333 0.444445,1.144444 0.01111,1.577777 z"
     id="path_0"
     style="stroke-width:1.11111" />
</svg>
