<?xml version="1.0" encoding="UTF-8" standalone="no"?>
<svg
   id="vector"
   width="24"
   height="24"
   viewBox="0 0 24 24"
   version="1.1"
   sodipodi:docname="community_new_msg.svg"
   inkscape:version="1.2.2 (732a01da63, 2022-12-09)"
   xmlns:inkscape="http://www.inkscape.org/namespaces/inkscape"
   xmlns:sodipodi="http://sodipodi.sourceforge.net/DTD/sodipodi-0.dtd"
   xmlns="http://www.w3.org/2000/svg"
   xmlns:svg="http://www.w3.org/2000/svg">
  <defs
     id="defs40709" />
  <sodipodi:namedview
     id="namedview40707"
     pagecolor="#ffffff"
     bordercolor="#000000"
     borderopacity="0.25"
     inkscape:showpageshadow="2"
     inkscape:pageopacity="0.0"
     inkscape:pagecheckerboard="0"
     inkscape:deskcolor="#d1d1d1"
     showgrid="false"
     inkscape:zoom="22.333333"
     inkscape:cx="11.104478"
     inkscape:cy="14.619403"
     inkscape:window-width="1920"
     inkscape:window-height="991"
     inkscape:window-x="-9"
     inkscape:window-y="-9"
     inkscape:window-maximized="1"
     inkscape:current-layer="vector" />
  <path
     fill="#ffffff"
     d="m 19.692308,7.3846926 m -2.307693,0 a 2.3076925,2.3076925 0 1 1 4.615385,0 2.3076925,2.3076925 0 1 1 -4.615385,0"
     id="path_0"
     style="stroke-width:0.769231" />
  <path
     fill="#ffffff"
     d="m 16.37,9.3239234 a 1.7184615,1.7184615 0 0 0 -0.900769,0.7684616 1.8023077,1.8023077 0 0 0 -0.193077,0.495384 2.0961538,2.0961538 0 0 0 0.02308,1.023077 1.8553846,1.8553846 0 0 0 0.263077,0.553847 1.7130769,1.7130769 0 0 0 0.638461,0.55 1.7492308,1.7492308 0 0 0 0.409228,0.140769 c 0.118462,0.02385 0.238462,0.03615 0.359231,0.03615 0.948461,0 1.72,-0.795385 1.745384,-1.786154 A 3.8538462,3.8538462 0 0 1 16.37,9.3239234 Z M 7.2192308,11.341616 a 1.8661538,1.8661538 0 0 1 -0.1138462,0.44 1.8615385,1.8615385 0 0 1 -0.2061538,0.383846 1.7176923,1.7176923 0 0 1 -0.6384616,0.549231 1.7461538,1.7461538 0 0 1 -0.4092307,0.140769 c -0.1176923,0.02385 -0.2384616,0.03615 -0.3592308,0.03615 -0.9638462,0 -1.7461539,-0.821539 -1.7461539,-1.835385 0,-1.013846 0.7823077,-1.8361537 1.7461539,-1.8361537 a 1.7538462,1.7538462 0 0 1 0.7684615,0.1761539 1.7184615,1.7184615 0 0 1 0.7307693,0.6961538 1.8084615,1.8084615 0 0 1 0.1938461,0.495385 2.1,2.1 0 0 1 0.033846,0.753846 z M 20.360769,15.820077 A 2.9130769,2.9130769 0 0 0 20.18,15.539308 3.5261538,3.5261538 0 0 0 19.88,15.174692 3.7207692,3.7207692 0 0 0 18.736923,14.346231 l -0.0046,-0.0023 a 4.8746154,4.8746154 0 0 0 -3.877693,-0.0023 l -0.04308,0.02154 -0.0077,0.0038 a 1.0461538,1.0461538 0 0 0 -0.08,0.04154 l 0.02154,0.01231 0.02308,0.01308 a 6.1361538,6.1361538 0 0 1 2.053846,1.966154 c 0.05,0.07846 0.09231,0.148461 0.128461,0.213077 0.06923,0.118461 0.120769,0.246154 0.152308,0.38 l 0.01385,0.09461 H 20.46155 V 16.020846 A 1.6807692,1.6807692 0 0 0 20.360769,15.820077 Z M 13.944615,9.8200772 a 3.0869231,3.0869231 0 0 0 -0.18,-0.6915384 2.8861538,2.8861538 0 0 0 -0.323077,-0.603077 2.67,2.67 0 0 0 -2.210769,-1.1407692 c -1.5553844,0 -2.7446152,1.25 -2.7446152,2.8846154 0,1.635385 1.1892308,2.884615 2.7446152,2.884615 a 2.8192308,2.8192308 0 0 0 0.830769,-0.126923 2.6707692,2.6707692 0 0 0 1.525385,-1.243846 2.8869231,2.8869231 0 0 0 0.303846,-0.779231 3.3076923,3.3076923 0 0 0 0.05385,-1.1830765 z m 2.377693,7.1461538 a 4.5123077,4.5123077 0 0 0 -0.259231,-0.413846 5.1546154,5.1546154 0 0 0 -0.426923,-0.534616 5.3523077,5.3523077 0 0 0 -1.643846,-1.224615 c -0.723077,-0.347692 -1.632308,-0.59 -2.761539,-0.59 -1.13,0 -2.0384613,0.242308 -2.7615382,0.59 l -0.046154,0.02308 -0.026154,0.01385 a 5.7515385,5.7515385 0 0 0 -0.4592305,0.257692 5.5069231,5.5069231 0 0 0 -0.6753846,0.500769 5.4015385,5.4015385 0 0 0 -1.0169231,1.194616 4.4392308,4.4392308 0 0 0 -0.1930769,0.346154 c -0.041538,0.08461 -0.060769,0.131538 -0.060769,0.131538 v 1.662308 H 16.47 V 17.261615 A 2.9384615,2.9384615 0 0 0 16.322308,16.966231 Z M 5.35,16.993923 a 0.48461538,0.48461538 0 0 1 0.062308,-0.186154 c 0.01,-0.02 0.019231,-0.04154 0.029231,-0.06461 0.015385,-0.03538 0.032308,-0.07462 0.056154,-0.117692 l 0.043846,-0.07769 c 0.026923,-0.04846 0.053846,-0.09538 0.084615,-0.146154 0.053077,-0.08231 0.1092308,-0.17 0.1769231,-0.263077 a 5.9923077,5.9923077 0 0 1 1.9346152,-1.73693 0.91153846,0.91153846 0 0 1 -0.023077,-0.01308 c -0.013846,-0.0077 -0.027692,-0.01461 -0.042308,-0.02077 l -0.050769,-0.02538 a 4.5353846,4.5353846 0 0 0 -1.9384616,-0.400769 4.5353846,4.5353846 0 0 0 -1.9384615,0.4 c 0,0.0015 -0.00154,0.0015 -0.00231,0.0023 H 3.74 a 3.8307692,3.8307692 0 0 0 -1.3153846,1.018459 3.6230769,3.6230769 0 0 0 -0.2415385,0.333846 l -0.022308,0.03462 c -0.02,0.03154 -0.039231,0.06154 -0.055385,0.08923 C 2.0346154,15.943154 2,16.021615 2,16.021615 v 1.066154 h 3.3438462 z"
     fill-rule="1"
     id="path_1"
     style="stroke-width:0.769231" />
</svg>
