<?xml version="1.0" encoding="UTF-8" standalone="no"?>
<svg
   id="vector"
   width="24"
   height="24"
   viewBox="0 0 12 12"
   version="1.1"
   sodipodi:docname="community.svg"
   inkscape:version="1.2.2 (732a01da63, 2022-12-09)"
   xmlns:inkscape="http://www.inkscape.org/namespaces/inkscape"
   xmlns:sodipodi="http://sodipodi.sourceforge.net/DTD/sodipodi-0.dtd"
   xmlns="http://www.w3.org/2000/svg"
   xmlns:svg="http://www.w3.org/2000/svg">
  <defs
     id="defs38759" />
  <sodipodi:namedview
     id="namedview38757"
     pagecolor="#ffffff"
     bordercolor="#000000"
     borderopacity="0.25"
     inkscape:showpageshadow="2"
     inkscape:pageopacity="0.0"
     inkscape:pagecheckerboard="0"
     inkscape:deskcolor="#d1d1d1"
     showgrid="false"
     inkscape:zoom="16.75"
     inkscape:cx="24"
     inkscape:cy="13.223881"
     inkscape:window-width="1920"
     inkscape:window-height="991"
     inkscape:window-x="-9"
     inkscape:window-y="-9"
     inkscape:window-maximized="1"
     inkscape:current-layer="vector" />
  <path
     fill="#ffffff"
     d="m 8.17275,5.0181667 c 0.00462,0.033583 0.010792,0.066292 0.018375,0.0985 0.00379,0.016333 0.00792,0.032208 0.012417,0.047583 0.00888,0.031375 0.01925,0.062208 0.031083,0.092458 0.017417,0.044458 0.037917,0.087542 0.061333,0.1288334 0.015542,0.027083 0.032292,0.053667 0.050208,0.078875 0.0535,0.076375 0.117625,0.143875 0.1901666,0.2002916 0.048875,0.037667 0.1010417,0.070333 0.1557917,0.097542 0.042,0.020667 0.085333,0.038125 0.1296667,0.052292 0.029917,0.00933 0.0605,0.017292 0.091792,0.023792 0.064125,0.013 0.1292917,0.019583 0.1945834,0.019625 0.522375,0 0.9458746,-0.4451666 0.9458746,-0.9943333 0,-0.549125 -0.4234996,-0.9942917 -0.9458746,-0.9942917 -0.065333,-2.083e-4 -0.1305,0.00638 -0.1945834,0.019583 C 8.882625,3.8951667 8.852,3.9030833 8.8217917,3.91275 8.7774583,3.92675 8.734125,3.9440417 8.692125,3.9645417 8.55525,4.032375 8.4364167,4.1347083 8.3461667,4.262375 8.328375,4.2880417 8.3115,4.3142083 8.2959583,4.34175 c -0.0235,0.04125 -0.044,0.084333 -0.061333,0.1288333 -0.011667,0.029875 -0.022208,0.060667 -0.031083,0.091958 -0.0045,0.015875 -0.00867,0.03175 -0.012417,0.047625 -0.00758,0.032208 -0.01375,0.064875 -0.018375,0.0985 -0.014125,0.102625 -0.014125,0.206875 -3e-7,0.3095004 z m -4.3455,0 C 3.8228333,5.05175 3.8165,5.0844583 3.8089167,5.1166667 3.805125,5.133 3.801,5.148875 3.7965,5.16425 3.78762,5.195625 3.77725,5.226458 3.765417,5.256708 3.747959,5.301166 3.727459,5.344208 3.704042,5.3855414 3.688542,5.4126244 3.671792,5.4392084 3.653875,5.4644164 3.6003333,5.54075 3.5362083,5.60825 3.4636667,5.6647083 c -0.048833,0.037667 -0.101,0.070333 -0.15575,0.097542 -0.042,0.020667 -0.085333,0.038125 -0.1297084,0.052292 -0.029917,0.00933 -0.0605,0.017292 -0.091792,0.023792 -0.064125,0.013 -0.12925,0.019583 -0.1945417,0.019625 -0.5224167,0 -0.9459167,-0.4451666 -0.9459167,-0.9943333 0,-0.549125 0.4235,-0.9942917 0.9459167,-0.9942917 0.065292,-2.083e-4 0.1304583,0.00638 0.1945417,0.019583 0.031,0.00625 0.061625,0.014208 0.091792,0.023833 0.044375,0.014 0.087708,0.031292 0.1297084,0.051792 0.136875,0.067833 0.2557083,0.1701666 0.3459583,0.2978333 0.017792,0.025667 0.034667,0.051833 0.050167,0.079375 0.0235,0.04125 0.044,0.084333 0.061375,0.1288333 0.011667,0.029875 0.022208,0.060667 0.031083,0.091958 0.00446,0.015875 0.00862,0.03175 0.012417,0.047625 0.00758,0.032208 0.01375,0.064875 0.018333,0.0985 0.014125,0.102625 0.014125,0.206875 0,0.3094998 z m 7.118042,2.4257916 c -0.01163,-0.020333 -0.02446,-0.0425 -0.04012,-0.067083 -0.01683,-0.026458 -0.03583,-0.054792 -0.05762,-0.085 -0.02175,-0.03025 -0.04588,-0.062333 -0.07296,-0.095417 -0.02713,-0.033042 -0.05671,-0.067042 -0.08929,-0.102 C 10.552083,6.95275 10.399875,6.831375 10.23325,6.7340833 10.180625,6.7029167 10.124708,6.673625 10.065667,6.64575 c -0.0018,-9.167e-4 -0.0033,-0.00142 -0.005,-0.00233 -0.6709586,-0.2897084 -1.4268336,-0.2897084 -2.097792,0 -0.0095,0.00425 -0.018415,0.00896 -0.027582,0.013667 -0.015042,0.00708 -0.028792,0.015125 -0.043417,0.022667 0.00817,0.00475 0.0165,0.009 0.024625,0.013708 0.1662083,0.097292 0.3239583,0.2091667 0.4715,0.334375 0.096375,0.081542 0.1880833,0.16875 0.2746667,0.2612084 0.053542,0.056667 0.1025,0.112875 0.1472083,0.1676666 0.045875,0.056208 0.086083,0.108625 0.1219583,0.1587084 0.036917,0.051458 0.068792,0.099167 0.09725,0.1430833 0.026917,0.0425 0.049708,0.080292 0.069375,0.11525 0.037333,0.064042 0.065167,0.1334583 0.082583,0.2059167 l 0.00729,0.051 H 11 V 7.5530417 C 10.984208,7.5154583 10.965917,7.479 10.945292,7.4439583 Z M 7.4699167,4.1944167 C 7.4625833,4.1415833 7.4529167,4.090125 7.441,4.0396667 7.4350833,4.0144583 7.4285417,3.9892083 7.4214583,3.9644583 7.407375,3.9149167 7.3910833,3.8668333 7.3727083,3.8197083 7.345375,3.7498333 7.313125,3.6822083 7.2762917,3.6173333 7.2519167,3.5744583 7.225625,3.5330417 7.1974583,3.4930417 7.0560833,3.2920833 6.8692083,3.131375 6.6537917,3.0254583 6.587875,2.9929167 6.5197083,2.9655417 6.4499167,2.9435833 6.4029167,2.9287917 6.3547917,2.9159583 6.3057083,2.9059583 6.2049583,2.885375 6.1025833,2.875 5.9999583,2.875 5.1576667,2.875 4.5135,3.5520833 4.5135,4.43775 4.5135,5.323375 5.1576667,6 5.9999583,6 c 0.102625,0 0.205,-0.010375 0.30575,-0.030958 0.049083,-0.01 0.097208,-0.022833 0.1442084,-0.037625 C 6.5197087,5.909459 6.587875,5.882084 6.6537917,5.849542 6.8692083,5.7436253 7.0560833,5.582917 7.1974583,5.3819586 c 0.028125,-0.04 0.054417,-0.081417 0.078833,-0.1242916 0.036833,-0.064875 0.069083,-0.1325 0.096417,-0.202375 0.018125,-0.047125 0.034667,-0.095708 0.04875,-0.14475 0.00708,-0.02475 0.013625,-0.049958 0.019542,-0.075208 0.011917,-0.0505 0.021583,-0.1019166 0.028917,-0.15475 C 7.492,4.519375 7.492,4.355625 7.4699167,4.1944167 Z m 1.288125,3.870375 C 8.7415,8.034875 8.7224583,8.0020417 8.7001667,7.9658333 c -0.023958,-0.038625 -0.051458,-0.080625 -0.0825,-0.1250416 -0.031083,-0.044417 -0.06575,-0.091708 -0.10425,-0.14 C 8.4749583,7.6525 8.4325417,7.6018333 8.3860417,7.551125 8.311375,7.4690833 8.232375,7.3915417 8.1495,7.3189167 8.0217917,7.2074583 7.8852917,7.1077917 7.7415833,7.0210417 c -0.075,-0.045375 -0.1546666,-0.088833 -0.2389583,-0.129375 -0.00229,-0.0015 -0.00471,-0.00279 -0.00717,-0.00388 -0.3915,-0.1882917 -0.8836666,-0.319625 -1.4955416,-0.319625 -0.611875,0 -1.104125,0.1313333 -1.4955417,0.319625 -0.013625,0.00625 -0.026083,0.0135 -0.039333,0.02025 -0.057208,0.0285 -0.1121667,0.058417 -0.1649584,0.088833 -0.028625,0.016917 -0.056625,0.033833 -0.084,0.050708 -0.128125,0.080625 -0.250375,0.1712917 -0.36575,0.2713334 C 3.7674167,7.3915417 3.6884167,7.4690417 3.61375,7.551125 3.567375,7.6018333 3.525,7.6520417 3.486375,7.7007917 c -0.038625,0.04875 -0.073167,0.095125 -0.10425,0.14 -0.031083,0.044917 -0.0585,0.086417 -0.0825,0.1250416 -0.022292,0.036208 -0.041292,0.069042 -0.057792,0.098958 -0.00154,0.00233 -0.00296,0.00475 -0.00425,0.00725 -0.017375,0.031375 -0.031542,0.058917 -0.042708,0.081583 -0.022375,0.045417 -0.032708,0.071 -0.032708,0.071 V 9.125 H 8.8378333 V 8.224625 C 8.8141667,8.16975 8.7875417,8.116375 8.7580417,8.0647917 Z m -5.94325,0.015375 c 0.00417,-0.03575 0.015625,-0.070167 0.033583,-0.1010834 0.014,-0.027375 0.024542,-0.060417 0.046333,-0.098667 C 2.9189167,7.838375 2.938,7.8010833 2.9644167,7.7590417 2.99275,7.7146667 3.0232083,7.6669583 3.0596667,7.6164583 3.096125,7.5659167 3.136,7.5125417 3.1808333,7.4577917 3.225625,7.403 3.274875,7.3463333 3.32875,7.2887083 3.5352917,7.0687083 3.77,6.8785417 4.0263333,6.7235 c 0.026625,-0.016083 0.054083,-0.032125 0.081792,-0.047708 -0.012,-0.00613 -0.023,-0.01275 -0.035417,-0.018417 C 4.0635,6.6526667 4.0543333,6.6479167 4.0451667,6.6436667 3.714375,6.494625 3.35625,6.4205417 2.9951667,6.4264583 2.6340833,6.4205417 2.2759583,6.494625 1.9452083,6.6436667 c -0.00175,9.583e-4 -0.00329,0.00142 -0.00504,0.00237 -0.059166,0.02788 -0.1151246,0.05713 -0.167833,0.088297 -0.100875,0.059 -0.1967083,0.1267917 -0.2863333,0.2025834 -0.058167,0.049417 -0.1136667,0.1020416 -0.1662083,0.15775 -0.032583,0.034917 -0.062375,0.068917 -0.089375,0.102 -0.027042,0.033042 -0.051375,0.065125 -0.073167,0.095375 -0.021833,0.030208 -0.041125,0.058542 -0.057958,0.085 -0.015625,0.024542 -0.030417,0.04675 -0.042042,0.067042 C 1.01875,7.511125 1,7.5531667 1,7.5531667 v 0.5775 h 1.8114167 z"
     fill-rule="1"
     id="path_0"
     style="stroke-width:0.416667" />
</svg>
