<?xml version="1.0" encoding="UTF-8" standalone="no"?>
<svg
   viewBox="0 0 24 24"
   height="24"
   width="24"
   preserveAspectRatio="xMidYMid"
   class=""
   version="1.1"
   x="0px"
   y="0px"
   enable-background="new 0 0 53 53"
   xml:space="preserve"
   id="svg39477"
   sodipodi:docname="attach_contact.svg"
   inkscape:version="1.2.2 (732a01da63, 2022-12-09)"
   xmlns:inkscape="http://www.inkscape.org/namespaces/inkscape"
   xmlns:sodipodi="http://sodipodi.sourceforge.net/DTD/sodipodi-0.dtd"
   xmlns="http://www.w3.org/2000/svg"
   xmlns:svg="http://www.w3.org/2000/svg"><defs
   id="defs39481" /><sodipodi:namedview
   id="namedview39479"
   pagecolor="#ffffff"
   bordercolor="#000000"
   borderopacity="0.25"
   inkscape:showpageshadow="2"
   inkscape:pageopacity="0.0"
   inkscape:pagecheckerboard="0"
   inkscape:deskcolor="#d1d1d1"
   showgrid="false"
   inkscape:zoom="15.169811"
   inkscape:cx="26.5"
   inkscape:cy="26.53296"
   inkscape:window-width="1920"
   inkscape:window-height="991"
   inkscape:window-x="-9"
   inkscape:window-y="-9"
   inkscape:window-maximized="1"
   inkscape:current-layer="svg39477" />
    <g
   id="g39472">
        <defs
   id="defs39459">
            <circle
   id="contact-SVGID_1_"
   cx="26.5"
   cy="26.5"
   r="25.5" />
        </defs>
        <clipPath
   id="contact-SVGID_2_">
            <use
   href="#contact-SVGID_1_"
   overflow="visible"
   id="use39461" />
        </clipPath>
        <g
   clip-path="url(#contact-SVGID_2_)"
   id="g39470">
            <g
   id="g39468">
                <path
   fill="#0795dc"
   d="M 26.5,-1.1 C 11.9,-1.1 -1.1,5.6 -1.1,27.6 H 54.1 C 54,8.6 41.1,-1.1 26.5,-1.1 Z"
   id="path39464" />
                <path
   fill="#0eabf4"
   d="M 53,26.5 H -1.1 c 0,14.6 13,27.6 27.6,27.6 14.6,0 27.6,-13 27.6,-27.6 0,0 -1.1,0 -1.1,0 z"
   id="path39466" />
            </g>
        </g>
    </g>
    <g
   fill="#F5F5F5"
   id="g39475"
   style="fill:#ffffff;fill-opacity:1"
   transform="matrix(1.1111111,0,0,1.1111111,-17.444444,-17.444444)">
        <path
   id="svg-contact"
   d="m 26.5,26.5 c 2.486,0 4.5,-2.014 4.5,-4.5 0,-2.486 -2.014,-4.5 -4.5,-4.5 -2.486,0 -4.5,2.014 -4.5,4.5 0,2.486 2.014,4.5 4.5,4.5 z m 0,2.25 c -3.004,0 -9,1.508 -9,4.5 v 1.125 c 0,0.619 0.506,1.125 1.125,1.125 h 15.75 c 0.619,0 1.125,-0.506 1.125,-1.125 V 33.25 c 0,-2.992 -5.996,-4.5 -9,-4.5 z"
   style="fill:#ffffff;fill-opacity:1">
        </path>
    </g>
</svg>
