<svg viewBox="0 0 24 24" height="24" width="24" preserveAspectRatio="xMidYMid meet" class="" fill="none">
   <path fill-rule="evenodd" clip-rule="evenodd"
      d="M14.3816 3.90531C14.6637 3.90531 14.8923 3.67656 14.8923 3.39438L14.8918 2.84589C16.1791 2.85038 17.6246 3.213 18.7365 4.14324C19.3525 4.65862 20.1579 5.50436 20.5746 6.56201C21.1688 8.07002 21.2528 9.90516 21.2528 10.9187C21.2528 11.0355 21.3256 11.163 21.4225 11.2599C21.5194 11.3568 21.6468 11.4297 21.7636 11.4297H22.1521C22.2924 11.4297 22.4435 11.373 22.5595 11.282C22.6755 11.1911 22.76 11.0631 22.76 10.9187C22.76 9.62054 22.556 7.44191 21.7866 5.69255C21.2979 4.58147 20.4227 3.71554 19.7402 3.13325C18.3666 1.96127 16.5472 1.44043 14.8918 1.4354L14.8923 0.610953C14.8923 0.491427 14.8504 0.375683 14.774 0.283861C14.5934 0.0670835 14.2713 0.0377945 14.0546 0.218443L12.385 1.61015C12.3612 1.62994 12.3393 1.65183 12.3196 1.67557C12.139 1.89235 12.1682 2.21453 12.385 2.39517L14.0546 3.78689C14.1463 3.8634 14.2621 3.90531 14.3816 3.90531Z"
      fill="white"></path>
   <path fill-rule="evenodd" clip-rule="evenodd"
      d="M17.8064 15.0538V9.00506L17.7987 9.00506C17.7852 7.6881 16.7109 6.62478 15.3878 6.62478L7.13536 6.62477L7.13536 3.43437C7.13536 2.99096 6.77596 2.63803 6.33319 2.63803H5.98825C5.54547 2.63803 5.18607 2.99096 5.18607 3.43437V6.62477H2.04586C1.60299 6.62477 1.23999 6.98386 1.23999 7.42717V7.76721C1.23999 8.21052 1.60299 8.5696 2.04586 8.5696L15.3878 8.56961C15.6429 8.56961 15.8495 8.77602 15.8495 9.03035L15.8622 11.4123V15.0538C15.8622 15.4969 16.2213 15.8562 16.6643 15.8562H17.0043C17.4473 15.8562 17.8064 15.4969 17.8064 15.0538Z"
      fill="white"></path>
   <path fill-rule="evenodd" clip-rule="evenodd"
      d="M5.18797 10.779V13.3284H5.18607L5.18609 16.8025C5.18609 18.1311 6.26561 19.208 7.59713 19.208H15.8495V22.2939C15.8495 22.7369 16.2085 23.1 16.6517 23.1H16.9967C17.4398 23.1 17.7988 22.7369 17.7988 22.2939V19.208H20.8904C21.3333 19.208 21.6963 18.8489 21.6963 18.4056V18.0655C21.6963 17.6222 21.3333 17.2631 20.8904 17.2631H7.59713C7.34204 17.2631 7.13537 17.0569 7.13537 16.8025L7.13536 13.3284H7.13226V10.779C7.13226 10.3358 6.77311 9.97659 6.33009 9.97659H5.99014C5.54711 9.97659 5.18797 10.3358 5.18797 10.779Z"
      fill="white"></path>
</svg>