<?xml version="1.0" encoding="UTF-8" standalone="no"?>
<svg
   id="vector"
   width="24"
   height="24"
   viewBox="0 0 24 24"
   version="1.1"
   sodipodi:docname="delivery_truck.svg"
   inkscape:version="1.2.2 (732a01da63, 2022-12-09)"
   xmlns:inkscape="http://www.inkscape.org/namespaces/inkscape"
   xmlns:sodipodi="http://sodipodi.sourceforge.net/DTD/sodipodi-0.dtd"
   xmlns="http://www.w3.org/2000/svg"
   xmlns:svg="http://www.w3.org/2000/svg">
  <defs
     id="defs48524" />
  <sodipodi:namedview
     id="namedview48522"
     pagecolor="#ffffff"
     bordercolor="#000000"
     borderopacity="0.25"
     inkscape:showpageshadow="2"
     inkscape:pageopacity="0.0"
     inkscape:pagecheckerboard="0"
     inkscape:deskcolor="#d1d1d1"
     showgrid="false"
     inkscape:zoom="33.5"
     inkscape:cx="12"
     inkscape:cy="12.014925"
     inkscape:window-width="1920"
     inkscape:window-height="991"
     inkscape:window-x="-9"
     inkscape:window-y="-9"
     inkscape:window-maximized="1"
     inkscape:current-layer="vector" />
  <path
     fill="#ffffff"
     d="M 19.272727,8.3638636 H 16.545455 V 4.7275 H 3.8181818 C 2.8181818,4.7275 2,5.5456818 2,6.5456818 V 16.545682 h 1.8181818 c 0,1.509091 1.2181818,2.727273 2.7272727,2.727273 1.509091,0 2.7272728,-1.218182 2.7272728,-2.727273 h 5.4545457 c 0,1.509091 1.218182,2.727273 2.727272,2.727273 1.509091,0 2.727273,-1.218182 2.727273,-2.727273 H 22 V 12.000227 Z M 6.5454545,17.909318 c -0.7545454,0 -1.3636363,-0.609091 -1.3636363,-1.363636 0,-0.754546 0.6090909,-1.363637 1.3636363,-1.363637 0.7545455,0 1.3636364,0.609091 1.3636364,1.363637 0,0.754545 -0.6090909,1.363636 -1.3636364,1.363636 z M 18.818182,9.7275 20.6,12.000227 H 16.545455 V 9.7275 Z m -1.363637,8.181818 c -0.754545,0 -1.363636,-0.609091 -1.363636,-1.363636 0,-0.754546 0.609091,-1.363637 1.363636,-1.363637 0.754546,0 1.363637,0.609091 1.363637,1.363637 0,0.754545 -0.609091,1.363636 -1.363637,1.363636 z"
     id="path_0"
     style="stroke-width:0.909091" />
</svg>
