<?xml version="1.0" encoding="UTF-8" standalone="no"?>
<svg
   viewBox="0 0 24 24"
   height="24"
   width="24"
   preserveAspectRatio="xMidYMid"
   class=""
   fill="none"
   version="1.1"
   id="svg50480"
   sodipodi:docname="disappear_msg.svg"
   inkscape:version="1.2.2 (732a01da63, 2022-12-09)"
   xmlns:inkscape="http://www.inkscape.org/namespaces/inkscape"
   xmlns:sodipodi="http://sodipodi.sourceforge.net/DTD/sodipodi-0.dtd"
   xmlns="http://www.w3.org/2000/svg"
   xmlns:svg="http://www.w3.org/2000/svg">
  <defs
     id="defs50484" />
  <sodipodi:namedview
     id="namedview50482"
     pagecolor="#ffffff"
     bordercolor="#000000"
     borderopacity="0.25"
     inkscape:showpageshadow="2"
     inkscape:pageopacity="0.0"
     inkscape:pagecheckerboard="0"
     inkscape:deskcolor="#d1d1d1"
     showgrid="false"
     inkscape:zoom="22.333333"
     inkscape:cx="18"
     inkscape:cy="9.8283582"
     inkscape:window-width="1920"
     inkscape:window-height="991"
     inkscape:window-x="-9"
     inkscape:window-y="-9"
     inkscape:window-maximized="1"
     inkscape:current-layer="svg50480" />
  <path
     fill="#ffffff"
     fill-rule="evenodd"
     clip-rule="evenodd"
     d="m 12.000089,21.999822 c 0.06733,0 0.134591,-6.66e-4 0.201628,-0.002 0.61355,-0.01215 1.101027,-0.519403 1.088879,-1.132879 -0.01215,-0.61355 -0.519403,-1.101027 -1.132879,-1.088879 -0.05244,10e-4 -0.104962,0.0016 -0.157628,0.0016 z m 0,-17.7776195 c 0.05267,0 0.105184,5.185e-4 0.157628,0.00156 0.613476,0.012163 1.120731,-0.4753439 1.132879,-1.0888644 C 13.302744,2.5213806 12.815267,2.0141628 12.201717,2.002 12.13468,2.0006667 12.067422,2 12.000089,2 Z m 4.826105,-0.9824061 c -0.53718,-0.2965381 -1.2131,-0.1014139 -1.50969,0.4358257 -0.296516,0.5372397 -0.101407,1.2131522 0.435848,1.5096829 0.09148,0.050503 0.18185,0.1027991 0.271109,0.1568505 0.52481,0.3179453 1.208063,0.1502209 1.525986,-0.3746263 C 17.867444,4.442682 17.699668,3.7594584 17.174858,3.4415057 17.060118,3.37201 16.943897,3.3047588 16.826194,3.2397964 Z m 3.732337,3.5853459 C 20.240534,6.3003321 19.557355,6.1325559 19.032471,6.450553 c -0.524884,0.3179231 -0.692587,1.0011763 -0.374589,1.525986 0.054,0.08926 0.106295,0.179629 0.156813,0.271109 0.296516,0.537255 0.972436,0.732364 1.50969,0.435848 0.537255,-0.29659 0.732364,-0.97251 0.435848,-1.5096901 C 20.695271,7.0561032 20.628012,6.939882 20.558531,6.8251423 Z M 21.998,11.798283 c -0.01215,-0.61355 -0.519403,-1.101027 -1.132879,-1.088879 -0.61355,0.01215 -1.101027,0.519403 -1.088879,1.132879 0.001,0.05244 0.0016,0.104962 0.0016,0.157628 0,0.05267 -5.19e-4,0.105184 -0.0016,0.157628 -0.01215,0.613476 0.475329,1.120731 1.088879,1.132879 0.613476,0.01215 1.120731,-0.475329 1.132879,-1.088879 0.0013,-0.06704 0.002,-0.134295 0.002,-0.201628 0,-0.06733 -6.67e-4,-0.134591 -0.002,-0.201628 z m -1.237767,5.027733 c 0.296516,-0.53718 0.101407,-1.2131 -0.435848,-1.50969 -0.537254,-0.296516 -1.213174,-0.101406 -1.50969,0.435848 -0.05052,0.09148 -0.102814,0.18185 -0.156813,0.271109 -0.317998,0.52481 -0.150295,1.208063 0.374589,1.525986 0.524884,0.317997 1.208063,0.150221 1.52606,-0.374589 0.06948,-0.11474 0.13674,-0.230961 0.201702,-0.348664 z m -3.585375,3.732338 c 0.52481,-0.317998 0.692586,-1.001177 0.374589,-1.526061 -0.317923,-0.524884 -1.001176,-0.692586 -1.525986,-0.374589 -0.08926,0.054 -0.179629,0.106295 -0.271109,0.156813 -0.537255,0.296516 -0.732364,0.972436 -0.435848,1.50969 0.29659,0.537255 0.97251,0.732364 1.50969,0.435848 0.117703,-0.06496 0.233924,-0.132221 0.348664,-0.201701 z"
     id="path50474"
     style="fill:#ffffff;fill-opacity:1;stroke-width:0.740734" />
  <path
     fill="#ffffff"
     fill-rule="evenodd"
     clip-rule="evenodd"
     d="m 12.000163,2 c -7.4e-5,0 -1.48e-4,0 -2.22e-4,0 C 6.4771009,2 2,6.4771454 2,11.999911 c 0,5.522766 4.4771009,9.999911 9.999941,9.999911 7.4e-5,0 1.48e-4,0 2.22e-4,0 V 19.77762 c -7.4e-5,0 -1.48e-4,0 -2.22e-4,0 -4.295518,0 -7.7777385,-3.482192 -7.7777385,-7.777709 0,-4.295517 3.4822205,-7.7777085 7.7777385,-7.7777085 7.4e-5,0 1.48e-4,0 2.22e-4,0 z"
     id="path50476"
     style="fill:#ffffff;fill-opacity:1;stroke-width:0.740734" />
  <path
     fill="#ffffff"
     d="m 15.944276,7.563432 c 0.255035,-0.1912575 0.611846,-0.1659244 0.837252,0.05948 v 0 c 0.225405,0.225405 0.250738,0.582217 0.05948,0.837252 l -3.380637,4.507589 c -0.527773,0.703698 -1.556504,0.776808 -2.178499,0.154814 v 0 c -0.621994,-0.621995 -0.548884,-1.650726 0.154813,-2.178499 z"
     id="path50478"
     style="fill:#ffffff;fill-opacity:1;stroke-width:0.740734" />
</svg>
