<?xml version="1.0" encoding="UTF-8" standalone="no"?>
<svg
   viewBox="0 0 24 24"
   height="24"
   width="24"
   preserveAspectRatio="xMidYMid"
   class=""
   fill="none"
   version="1.1"
   id="svg56713"
   sodipodi:docname="double_tick.svg"
   inkscape:version="1.2.2 (732a01da63, 2022-12-09)"
   xmlns:inkscape="http://www.inkscape.org/namespaces/inkscape"
   xmlns:sodipodi="http://sodipodi.sourceforge.net/DTD/sodipodi-0.dtd"
   xmlns="http://www.w3.org/2000/svg"
   xmlns:svg="http://www.w3.org/2000/svg">
  <defs
     id="defs56717" />
  <sodipodi:namedview
     id="namedview56715"
     pagecolor="#ffffff"
     bordercolor="#000000"
     borderopacity="0.25"
     inkscape:showpageshadow="2"
     inkscape:pageopacity="0.0"
     inkscape:pagecheckerboard="0"
     inkscape:deskcolor="#d1d1d1"
     showgrid="false"
     inkscape:zoom="18.272727"
     inkscape:cx="8.4278607"
     inkscape:cy="12.669154"
     inkscape:window-width="1920"
     inkscape:window-height="991"
     inkscape:window-x="-9"
     inkscape:window-y="-9"
     inkscape:window-maximized="1"
     inkscape:current-layer="svg56713" />
  <path
     d="M 15.598669,5.7771692 C 15.493643,5.6887231 15.360924,5.6445 15.200643,5.6445 c -0.193461,0 -0.35936,0.07739 -0.497565,0.2321717 L 6.6185689,15.851778 3.4759547,12.883292 c -0.055282,-0.06081 -0.1216154,-0.107794 -0.1990129,-0.140961 -0.077384,-0.03317 -0.1575383,-0.04974 -0.2404614,-0.04974 -0.1713588,0 -0.3206152,0.06356 -0.4477562,0.190705 L 2.1824204,13.2896 C 2.0608064,13.40569 2,13.552177 2,13.729061 c 0,0.176898 0.060806,0.326154 0.1824204,0.447769 l 3.9137642,3.913755 c 0.1934742,0.176872 0.4118202,0.265307 0.6550509,0.265307 0.1382052,0 0.2708718,-0.03031 0.3980127,-0.09118 0.127141,-0.06074 0.2321665,-0.146435 0.3150897,-0.257078 L 16.145872,7.0126533 c 0.09405,-0.127141 0.140949,-0.2570382 0.140949,-0.3897178 0,-0.2045255 -0.08282,-0.3676024 -0.248717,-0.4892165 z M 12.398003,15.802035 c -0.248756,-0.154782 -0.486462,-0.309564 -0.713102,-0.464346 -0.105039,-0.105026 -0.243231,-0.157551 -0.414603,-0.157551 -0.193474,0 -0.351012,0.0691 -0.472628,0.207307 l -0.381423,0.431167 c -0.110564,0.127141 -0.165846,0.268102 -0.165846,0.422884 0,0.171372 0.06081,0.320629 0.182423,0.447769 l 1.409615,1.40132 c 0.176897,0.176872 0.392487,0.265307 0.646769,0.265307 0.138192,0 0.270872,-0.03031 0.398013,-0.09118 0.127141,-0.06074 0.234935,-0.146435 0.323384,-0.257078 L 21.859052,7.0458199 C 21.952972,6.9352688 22,6.8053585 22,6.6561021 22,6.4681535 21.92254,6.3050896 21.767742,6.166887 L 21.303487,5.8103371 c -0.105025,-0.088447 -0.235001,-0.1326705 -0.389796,-0.1326705 -0.187844,0 -0.350999,0.077391 -0.489204,0.2321731 z"
     fill="#ffffff"
     id="path56711"
     style="stroke-width:1.30629" />
</svg>
