<?xml version="1.0" encoding="UTF-8" standalone="no"?>
<svg
   viewBox="0 0 24 24"
   height="24"
   width="24"
   preserveAspectRatio="xMidYMid"
   class=""
   version="1.1"
   x="0px"
   y="0px"
   enable-background="new 0 0 34 34"
   xml:space="preserve"
   id="svg58669"
   sodipodi:docname="download_circle_outline.svg"
   inkscape:version="1.2.2 (732a01da63, 2022-12-09)"
   xmlns:inkscape="http://www.inkscape.org/namespaces/inkscape"
   xmlns:sodipodi="http://sodipodi.sourceforge.net/DTD/sodipodi-0.dtd"
   xmlns="http://www.w3.org/2000/svg"
   xmlns:svg="http://www.w3.org/2000/svg"><defs
   id="defs58673" /><sodipodi:namedview
   id="namedview58671"
   pagecolor="#ffffff"
   bordercolor="#000000"
   borderopacity="0.25"
   inkscape:showpageshadow="2"
   inkscape:pageopacity="0.0"
   inkscape:pagecheckerboard="0"
   inkscape:deskcolor="#d1d1d1"
   showgrid="false"
   inkscape:zoom="23.647059"
   inkscape:cx="17"
   inkscape:cy="17.021144"
   inkscape:window-width="1920"
   inkscape:window-height="991"
   inkscape:window-x="-9"
   inkscape:window-y="-9"
   inkscape:window-maximized="1"
   inkscape:current-layer="svg58669" />
    <path
   fill="#ffffff"
   d="m 12,2.625 c 5.1875,0 9.375,4.1875 9.375,9.375 0,5.1875 -4.1875,9.375 -9.375,9.375 C 6.8125,21.375 2.625,17.1875 2.625,12 2.625,6.8125 6.8125,2.625 12,2.625 M 12,2 C 6.5,2 2,6.5 2,12 2,17.5 6.5,22 12,22 17.5,22 22,17.5 22,12 22,6.5 17.5,2 12,2 Z"
   id="path58665"
   style="stroke-width:0.625">
    </path>
    <path
   fill="#ffffff"
   d="m 15.375,12.3125 h -2 v -4.25 c 0,-0.25 -0.1875,-0.4375 -0.4375,-0.4375 h -2 c -0.25,0 -0.4375,0.1875 -0.4375,0.4375 v 4.25 h -2 c -0.375,0 -0.5,0.25 -0.25,0.5 l 3.125,3.3125 c 0.3125,0.4375 0.625,0.3125 0.9375,0 l 3.125,-3.3125 c 0.4375,-0.3125 0.3125,-0.5 -0.0625,-0.5 z"
   id="path58667"
   style="stroke-width:0.625">
    </path>
</svg>
