<?xml version="1.0" encoding="UTF-8" standalone="no"?>
<svg
   viewBox="0 0 24 24"
   height="24"
   width="24"
   preserveAspectRatio="xMidYMid meet"
   class="ekdr8vow dhq51u3o"
   version="1.1"
   x="0px"
   y="0px"
   enable-background="new 0 0 24 24"
   xml:space="preserve"
   id="svg62579"
   sodipodi:docname="emoji.svg"
   inkscape:version="1.2.2 (732a01da63, 2022-12-09)"
   xmlns:inkscape="http://www.inkscape.org/namespaces/inkscape"
   xmlns:sodipodi="http://sodipodi.sourceforge.net/DTD/sodipodi-0.dtd"
   xmlns="http://www.w3.org/2000/svg"
   xmlns:svg="http://www.w3.org/2000/svg"><defs
   id="defs62583" /><sodipodi:namedview
   id="namedview62581"
   pagecolor="#ffffff"
   bordercolor="#000000"
   borderopacity="0.25"
   inkscape:showpageshadow="2"
   inkscape:pageopacity="0.0"
   inkscape:pagecheckerboard="0"
   inkscape:deskcolor="#d1d1d1"
   showgrid="false"
   inkscape:zoom="33.5"
   inkscape:cx="12"
   inkscape:cy="12.014925"
   inkscape:window-width="1920"
   inkscape:window-height="991"
   inkscape:window-x="-9"
   inkscape:window-y="-9"
   inkscape:window-maximized="1"
   inkscape:current-layer="svg62579" />
    <path
   fill="#ffffff"
   d="m 9.4176571,11.639743 c 0.7213499,0 1.3056889,-0.797568 1.3056889,-1.7802377 0,-0.9826694 -0.584339,-1.7802377 -1.3056889,-1.7802377 -0.7213501,0 -1.3056891,0.7975683 -1.3056891,1.7802377 0,0.9826697 0.584339,1.7802377 1.3056891,1.7802377 z M 6.51048,12.875566 c -0.023591,-0.27856 -0.118864,4.734597 5.501316,5.036748 5.504037,-0.22684 5.504037,-5.036748 5.504037,-5.036748 -5.514926,1.284819 -11.005353,0 -11.005353,0 z m 10.310317,1.005353 c 0,0 -0.607023,1.777516 -4.583069,1.777516 -3.1802922,0 -4.8888486,-1.056166 -5.0875602,-1.777516 0,0 5.3643042,0.957263 9.6706292,0 z M 11.823065,2.029 C 6.201978,2.029 2,6.5857553 2,12.206842 c 0,5.621087 4.378913,9.764087 10,9.764087 5.621087,0 10,-4.143 10,-9.764087 C 22.000907,6.5857553 17.444152,2.029 11.823065,2.029 Z m 0.177842,18.458397 c -4.784502,0 -8.5119314,-3.525995 -8.5119314,-8.310498 0,-4.7845019 3.5768079,-8.6634602 8.3613104,-8.6634602 4.784502,0 8.66346,3.8789583 8.66346,8.6634602 -9.07e-4,4.783595 -3.728336,8.310498 -8.512839,8.310498 z m 2.820071,-8.847654 c 0.72135,0 1.305689,-0.797568 1.305689,-1.7802377 0,-0.9826694 -0.584339,-1.7802377 -1.305689,-1.7802377 -0.72135,0 -1.305689,0.7975683 -1.305689,1.7802377 0,0.9826697 0.584339,1.7802377 1.305689,1.7802377 z"
   id="path62577"
   style="stroke-width:0;fill:#fdffff;fill-opacity:1;stroke-dasharray:none">
    </path>
</svg>
