<?xml version="1.0" encoding="UTF-8" standalone="no"?>
<svg
   id="vector"
   width="24"
   height="24"
   viewBox="0 0 24 24"
   version="1.1"
   sodipodi:docname="exit_transparent_teal.svg"
   inkscape:version="1.2.2 (732a01da63, 2022-12-09)"
   xmlns:inkscape="http://www.inkscape.org/namespaces/inkscape"
   xmlns:sodipodi="http://sodipodi.sourceforge.net/DTD/sodipodi-0.dtd"
   xmlns="http://www.w3.org/2000/svg"
   xmlns:svg="http://www.w3.org/2000/svg">
  <defs
     id="defs1893" />
  <sodipodi:namedview
     id="namedview1891"
     pagecolor="#ffffff"
     bordercolor="#000000"
     borderopacity="0.25"
     inkscape:showpageshadow="2"
     inkscape:pageopacity="0.0"
     inkscape:pagecheckerboard="0"
     inkscape:deskcolor="#d1d1d1"
     showgrid="false"
     inkscape:zoom="7.1785714"
     inkscape:cx="56"
     inkscape:cy="56.069652"
     inkscape:window-width="1920"
     inkscape:window-height="991"
     inkscape:window-x="-9"
     inkscape:window-y="-9"
     inkscape:window-maximized="1"
     inkscape:current-layer="vector" />
  <path
     fill="#06cf9c"
     d="m 12,2 v 0 a 10,10 0 0 1 10,10 v 0 A 10,10 0 0 1 12,22 v 0 A 10,10 0 0 1 2,12 v 0 A 10,10 0 0 1 12,2 Z"
     id="path_0"
     style="stroke-width:0.178571" />
  <path
     fill="#00a884"
     d="m 9.5,8.7857143 h 5 c 0.392857,0 0.714286,0.3214286 0.714286,0.7142857 v 5 c 0,0.392857 -0.321429,0.714286 -0.714286,0.714286 h -5 c -0.3928571,0 -0.7142857,-0.321429 -0.7142857,-0.714286 v -1.071429 c 0,-0.196428 0.1607143,-0.357142 0.3571428,-0.357142 0.1964286,0 0.3571429,0.160714 0.3571429,0.357142 v 0.714286 C 9.5,14.339286 9.6607143,14.5 9.8571429,14.5 H 14.142857 C 14.339286,14.5 14.5,14.339286 14.5,14.142857 V 9.8571429 C 14.5,9.6607143 14.339286,9.5 14.142857,9.5 H 9.8571429 C 9.6607143,9.5 9.5,9.6607143 9.5,9.8571429 v 0.7142861 c 0,0.196428 -0.1607143,0.357142 -0.3571429,0.357142 -0.1964285,0 -0.3571428,-0.160714 -0.3571428,-0.357142 V 9.5 C 8.7857143,9.1071429 9.1035714,8.7857143 9.5,8.7857143 Z M 13.353571,12.25 12.071429,13.532143 c -0.139286,0.139286 -0.364286,0.139286 -0.503572,0 -0.135714,-0.135714 -0.139286,-0.364286 0,-0.503572 l 0.671429,-0.671428 H 9.1428571 c -0.1964285,0 -0.3571428,-0.160714 -0.3571428,-0.357143 0,-0.196429 0.1607143,-0.357143 0.3571428,-0.357143 h 3.0964289 l -0.671429,-0.675 c -0.139286,-0.139286 -0.139286,-0.364286 0,-0.503571 0.06679,-0.06679 0.157322,-0.104465 0.251786,-0.104465 0.09446,0 0.185,0.03768 0.251786,0.104465 l 1.282142,1.282143 c 0.139286,0.139285 0.139286,0.364285 0,0.503571 z"
     fill-rule="1"
     id="path_1"
     style="stroke-width:0.178571" />
</svg>
