<?xml version="1.0" encoding="UTF-8" standalone="no"?>
<svg
   id="vector"
   width="24"
   height="24"
   viewBox="0 0 24 24"
   version="1.1"
   sodipodi:docname="eye_slash.svg"
   inkscape:version="1.2.2 (732a01da63, 2022-12-09)"
   xmlns:inkscape="http://www.inkscape.org/namespaces/inkscape"
   xmlns:sodipodi="http://sodipodi.sourceforge.net/DTD/sodipodi-0.dtd"
   xmlns="http://www.w3.org/2000/svg"
   xmlns:svg="http://www.w3.org/2000/svg">
  <defs
     id="defs3841" />
  <sodipodi:namedview
     id="namedview3839"
     pagecolor="#ffffff"
     bordercolor="#000000"
     borderopacity="0.25"
     inkscape:showpageshadow="2"
     inkscape:pageopacity="0.0"
     inkscape:pagecheckerboard="0"
     inkscape:deskcolor="#d1d1d1"
     showgrid="false"
     inkscape:zoom="33.5"
     inkscape:cx="12"
     inkscape:cy="12.014925"
     inkscape:window-width="1920"
     inkscape:window-height="991"
     inkscape:window-x="-9"
     inkscape:window-y="-9"
     inkscape:window-maximized="1"
     inkscape:current-layer="vector" />
  <path
     fill="#ffffff"
     d="m 12.004548,6.9975173 c 2.510231,0 4.547521,2.0372897 4.547521,4.5475217 0,0.591178 -0.118235,1.145975 -0.327421,1.664393 L 18.8804,15.865184 C 20.253752,14.719209 21.336062,13.236717 22,11.545039 20.426558,7.5523149 16.542974,4.7237565 11.995452,4.7237565 c -1.273306,0 -2.4920414,0.2273761 -3.6198267,0.636653 L 10.340155,7.3249388 C 10.858572,7.1157528 11.41337,6.9975173 12.004548,6.9975173 Z M 2.9095043,4.5145705 4.9831742,6.5882403 5.4015462,7.0066123 C 3.891769,8.1798729 2.7094134,9.7442203 2,11.545039 c 1.5734425,3.992724 5.4570259,6.821282 10.004548,6.821282 1.409731,0 2.755798,-0.272851 3.983628,-0.763983 l 0.381992,0.381991 2.664848,2.655753 1.15507,-1.15507 L 4.0645748,3.3595 Z m 5.0295589,5.0295589 1.4097317,1.4097316 c -0.045475,0.190996 -0.07276,0.391087 -0.07276,0.591178 0,1.509777 1.2187361,2.728513 2.7285131,2.728513 0.20009,0 0.400181,-0.02728 0.591177,-0.07276 l 1.409732,1.409732 c -0.609368,0.300137 -1.282401,0.482037 -2.000909,0.482037 -2.5102321,0 -4.5475218,-2.037289 -4.5475218,-4.547521 0,-0.718509 0.1819009,-1.391542 0.4820373,-2.0009096 z m 3.9199638,-0.7094134 2.864938,2.864939 0.01819,-0.145521 c 0,-1.509777 -1.218736,-2.728513 -2.728513,-2.728513 z"
     id="path_0"
     style="stroke-width:0.909504" />
</svg>
