<?xml version="1.0" encoding="UTF-8" standalone="no"?>
<svg
   id="vector"
   width="24"
   height="24"
   viewBox="0 0 24 24"
   version="1.1"
   sodipodi:docname="finger_print.svg"
   inkscape:version="1.2.2 (732a01da63, 2022-12-09)"
   xmlns:inkscape="http://www.inkscape.org/namespaces/inkscape"
   xmlns:sodipodi="http://sodipodi.sourceforge.net/DTD/sodipodi-0.dtd"
   xmlns="http://www.w3.org/2000/svg"
   xmlns:svg="http://www.w3.org/2000/svg">
  <defs
     id="defs5791" />
  <sodipodi:namedview
     id="namedview5789"
     pagecolor="#ffffff"
     bordercolor="#000000"
     borderopacity="0.25"
     inkscape:showpageshadow="2"
     inkscape:pageopacity="0.0"
     inkscape:pagecheckerboard="0"
     inkscape:deskcolor="#d1d1d1"
     showgrid="false"
     inkscape:zoom="33.5"
     inkscape:cx="12"
     inkscape:cy="12.014925"
     inkscape:window-width="1920"
     inkscape:window-height="991"
     inkscape:window-x="-9"
     inkscape:window-y="-9"
     inkscape:window-maximized="1"
     inkscape:current-layer="vector" />
  <g
     id="group"
     transform="matrix(1.1117905,0,0,1.1117905,-1.3387069,-2.6857909)"
     style="stroke-width:0;stroke-dasharray:none;fill:#ffffff;fill-opacity:1">
    <path
       style="color:#000000;fill:#ffffff;stroke-linecap:round;stroke-width:0;stroke-dasharray:none;fill-opacity:1"
       d="M 13.400391,6.9335937 C 10.452233,6.4375958 7.4351677,7.573501 5.4882812,9.8125 2.8605735,12.835707 3.8764179,16.731307 4.4863281,18.644531 A 0.5,0.5 0 0 0 5.1152344,18.96875 0.5,0.5 0 0 0 5.4394531,18.341797 C 4.8513645,16.497025 3.9799002,13.071537 6.2421875,10.46875 8.5383341,7.8280876 12.494714,6.9135259 15.773438,8.8535156 c 2.953536,1.7479344 3.459977,4.4436994 3.439453,5.6894534 -0.01245,0.730383 -0.267039,1.202944 -0.634766,1.529297 -0.367727,0.326352 -0.873085,0.500115 -1.394531,0.507812 -0.521447,0.0077 -1.046164,-0.154005 -1.427735,-0.449219 -0.38157,-0.295214 -0.634926,-0.702923 -0.667968,-1.296875 -0.08786,-1.570982 -0.961744,-2.52381 -1.927735,-2.890625 -0.96599,-0.366815 -1.960229,-0.273264 -2.61914,0.105469 -1.1384307,0.654041 -1.6106631,1.726346 -1.6562504,2.75 -0.045587,1.023654 0.2726967,2.019464 0.6210938,2.787109 1.3464056,2.965286 3.9412826,4.020912 5.2617186,4.378907 A 0.5,0.5 0 0 0 15.380859,21.613281 0.5,0.5 0 0 0 15.029297,21 c -1.165561,-0.316005 -3.42969,-1.219463 -4.613281,-3.826172 -0.305603,-0.673353 -0.5678662,-1.553687 -0.5332035,-2.332031 0.034663,-0.778345 0.3036355,-1.434823 1.1582035,-1.925781 0.277087,-0.159266 1.104164,-0.287544 1.763672,-0.03711 0.659507,0.250435 1.21502,0.755751 1.285156,2.009766 0.04846,0.871047 0.46929,1.580293 1.054687,2.033203 0.585397,0.45291 1.320807,0.669006 2.052735,0.658203 0.731927,-0.0108 1.471931,-0.251244 2.044921,-0.759766 0.572991,-0.508521 0.954156,-1.291103 0.970704,-2.261718 C 20.238366,13.01235 19.581661,9.9442498 16.283203,7.9921875 15.357886,7.444686 14.38311,7.0989264 13.400391,6.9335937 Z"
       id="path5779" />
    <path
       style="color:#000000;fill:#ffffff;stroke-linecap:round;stroke-width:0;stroke-dasharray:none;fill-opacity:1"
       d="m 11.998047,4.4355469 c -3.6868739,0 -6.7057692,1.5216873 -8.8964845,4.4824219 A 0.5,0.5 0 0 0 3.2050781,9.6171875 0.5,0.5 0 0 0 3.9042969,9.5117188 C 5.9355774,6.766459 8.5789278,5.4355469 11.998047,5.4355469 c 3.418926,0 6.062942,1.3234766 8.09375,4.0507812 a 0.5,0.5 0 0 0 0.699219,0.1035157 0.5,0.5 0 0 0 0.101562,-0.7011719 C 18.70139,5.9459822 15.683114,4.4355469 11.998047,4.4355469 Z"
       id="path5781" />
    <path
       style="color:#000000;fill:#ffffff;stroke-linecap:round;stroke-width:0;stroke-dasharray:none;fill-opacity:1"
       d="M 10.701172,9.3925781 C 9.6116249,9.6268295 8.5692807,10.188412 7.7265625,11.134766 6.1923893,12.858309 6.1102858,15.107801 6.65625,17.066406 c 0.5459642,1.958606 1.6810575,3.679571 2.7871094,4.59961 a 0.5,0.5 0 0 0 0.7031246,-0.06445 0.5,0.5 0 0 0 -0.06445,-0.705078 C 9.2020851,20.164525 8.1088785,18.548719 7.6210937,16.798828 7.133309,15.048937 7.2118322,13.217235 8.4726563,11.800781 11.281777,8.6462021 16.662109,10.583456 16.662109,14.664063 a 0.5,0.5 0 0 0 0.5,0.5 0.5,0.5 0 0 0 0.5,-0.5 c 0,-3.721039 -3.692296,-5.9742391 -6.960937,-5.2714849 z"
       id="path5783" />
    <path
       style="color:#000000;fill:#ffffff;stroke-linecap:round;stroke-width:0;stroke-dasharray:none;fill-opacity:1"
       d="m 11.941406,14.0625 a 0.60000002,0.60000002 0 0 0 -0.599609,0.599609 c 0,1.36517 0.573528,2.846414 1.724609,3.921875 1.151081,1.075462 2.899849,1.701227 5.082031,1.330078 a 0.60000002,0.60000002 0 0 0 0.490235,-0.691406 0.60000002,0.60000002 0 0 0 -0.691406,-0.490234 c -1.868814,0.31785 -3.173834,-0.195104 -4.0625,-1.025391 -0.888667,-0.830286 -1.341797,-2.024094 -1.341797,-3.044922 A 0.60000002,0.60000002 0 0 0 11.941406,14.0625 Z"
       id="path5785" />
  </g>
</svg>
