<?xml version="1.0" encoding="UTF-8" standalone="no"?>
<svg
   id="vector"
   width="24"
   height="24"
   viewBox="0 0 24 24"
   version="1.1"
   sodipodi:docname="group.svg"
   xmlns:inkscape="http://www.inkscape.org/namespaces/inkscape"
   xmlns:sodipodi="http://sodipodi.sourceforge.net/DTD/sodipodi-0.dtd"
   xmlns="http://www.w3.org/2000/svg"
   xmlns:svg="http://www.w3.org/2000/svg">
  <sodipodi:namedview
     id="namedview9722"
     pagecolor="#ffffff"
     bordercolor="#000000"
     borderopacity="0.25"
     inkscape:showpageshadow="2"
     inkscape:pageopacity="0.0"
     inkscape:pagecheckerboard="0"
     inkscape:deskcolor="#d1d1d1"
     showgrid="false" />
  <defs
     id="defs9716">
    <clipPath
       id="clip_path_0">
      <path
         d="M 0,0 H 22 V 14 H 0 Z"
         id="path9713" />
    </clipPath>
  </defs>
  <g
     id="g_0"
     style="fill:#000000;fill-opacity:1">
    <path
       fill="white"
       d="m 15,6 c 1.66,0 2.99,-1.34 2.99,-3 0,-1.66 -1.33,-3 -2.99,-3 -1.66,0 -3,1.34 -3,3 0,1.66 1.34,3 3,3 z M 7,6 C 8.66,6 9.99,4.66 9.99,3 9.99,1.34 8.66,0 7,0 5.34,0 4,1.34 4,3 4,4.66 5.34,6 7,6 Z M 7,8 C 4.67,8 0,9.17 0,11.5 V 13 c 0,0.55 0.45,1 1,1 h 12 c 0.55,0 1,-0.45 1,-1 V 11.5 C 14,9.17 9.33,8 7,8 Z m 8,0 c -0.29,0 -0.62,0.02 -0.97,0.05 0.02,0.01 0.03,0.03 0.04,0.04 C 15.21,8.92 16,10.03 16,11.5 V 13 c 0,0.35 -0.07,0.69 -0.18,1 H 21 c 0.55,0 1,-0.45 1,-1 V 11.5 C 22,9.17 17.33,8 15,8 Z"
       clip-path="url(#clip_path_0)"
       id="path9718"
       style="fill:#000000;fill-opacity:1" />
  </g>
</svg>
