<?xml version="1.0" encoding="UTF-8" standalone="no"?>
<svg
   viewBox="0 0 24 24"
   height="24"
   width="24"
   preserveAspectRatio="xMidYMid meet"
   class=""
   version="1.1"
   x="0px"
   y="0px"
   enable-background="new 0 0 24 24"
   xml:space="preserve"
   id="svg6069"
   sodipodi:docname="help.svg"
   inkscape:version="1.2.2 (732a01da63, 2022-12-09)"
   xmlns:inkscape="http://www.inkscape.org/namespaces/inkscape"
   xmlns:sodipodi="http://sodipodi.sourceforge.net/DTD/sodipodi-0.dtd"
   xmlns="http://www.w3.org/2000/svg"
   xmlns:svg="http://www.w3.org/2000/svg"><defs
   id="defs6073" /><sodipodi:namedview
   id="namedview6071"
   pagecolor="#ffffff"
   bordercolor="#000000"
   borderopacity="0.25"
   inkscape:showpageshadow="2"
   inkscape:pageopacity="0.0"
   inkscape:pagecheckerboard="0"
   inkscape:deskcolor="#d1d1d1"
   showgrid="false"
   inkscape:zoom="23.688077"
   inkscape:cx="2.3640585"
   inkscape:cy="16.189579"
   inkscape:window-width="1920"
   inkscape:window-height="991"
   inkscape:window-x="-9"
   inkscape:window-y="-9"
   inkscape:window-maximized="1"
   inkscape:current-layer="svg6069" />
    <path
   style="color:#000000;fill:#ffffff;fill-opacity:1;fill-rule:evenodd;stroke-width:1.1494;-inkscape-stroke:none"
   d="M 11.999878,2 C 6.5125648,2 2.0009999,6.5138098 2.001,12.001123 2.001,17.488435 6.5125648,22 11.999878,22 17.487191,22 21.998756,17.488435 21.998756,12.001123 21.998756,6.5138098 17.487191,2 11.999878,2 Z m 0,1.1493995 c 4.857273,0 8.849478,3.9944509 8.849478,8.8517235 0,4.857271 -3.992205,8.849477 -8.849478,8.849477 -4.8572726,0 -8.8494785,-3.992206 -8.8494786,-8.849477 0,-4.8572726 3.992206,-8.8517235 8.8494786,-8.8517235 z"
   id="path6065" />
    <path
   fill="white"
   d="m 12.919398,18.552251 h -1.83904 v -1.83904 h 1.83904 z m 1.953979,-7.241217 -0.80458,0.804579 c -0.80458,0.68964 -1.149399,1.26434 -1.149399,2.643619 h -1.83904 v -0.45976 c 0,-1.034459 0.34482,-1.953979 1.1494,-2.643618 l 1.149399,-1.26434 c 0.34482,-0.22988 0.5747,-0.8045797 0.5747,-1.2643387 0,-1.03446 -0.80458,-1.8390396 -1.839039,-1.8390396 -1.03446,0 -1.839039,0.8045796 -1.839039,1.8390396 H 8.2068593 c 0,-2.0689195 1.7240994,-3.7930187 3.7930187,-3.7930187 2.068919,0 3.793018,1.7240992 3.793018,3.7930187 0,0.9195187 -0.459759,1.6091587 -0.919519,2.1838587 z"
   id="path7284"
   style="fill:#ffffff;fill-opacity:1;stroke-width:1.1494">

    </path>
</svg>
