<?xml version="1.0" encoding="UTF-8" standalone="no"?>
<svg
   id="vector"
   width="24"
   height="24"
   viewBox="0 0 24 24"
   version="1.1"
   sodipodi:docname="image.svg"
   inkscape:version="1.2.2 (732a01da63, 2022-12-09)"
   xmlns:inkscape="http://www.inkscape.org/namespaces/inkscape"
   xmlns:sodipodi="http://sodipodi.sourceforge.net/DTD/sodipodi-0.dtd"
   xmlns="http://www.w3.org/2000/svg"
   xmlns:svg="http://www.w3.org/2000/svg">
  <defs
     id="defs1053" />
  <sodipodi:namedview
     id="namedview1051"
     pagecolor="#ffffff"
     bordercolor="#000000"
     borderopacity="0.25"
     inkscape:showpageshadow="2"
     inkscape:pageopacity="0.0"
     inkscape:pagecheckerboard="0"
     inkscape:deskcolor="#d1d1d1"
     showgrid="false"
     inkscape:zoom="17.125242"
     inkscape:cx="-16.525314"
     inkscape:cy="18.83185"
     inkscape:window-width="1920"
     inkscape:window-height="991"
     inkscape:window-x="-9"
     inkscape:window-y="-9"
     inkscape:window-maximized="1"
     inkscape:current-layer="vector" />
  <path
     fill="#ffffff"
     d="M 22,19.5 V 4.5 C 22,3.125 20.875,2 19.5,2 H 4.5 C 3.125,2 2,3.125 2,4.5 v 15 C 2,20.875 3.125,22 4.5,22 h 15 c 1.375,0 2.5,-1.125 2.5,-2.5 z m -13.25,-4.336667 2.038333,2.725 3.225,-4.026666 c 0.25,-0.311667 0.723334,-0.311667 0.973334,0 l 3.7,4.625 C 19.013333,18.9 18.725,19.5 18.2,19.5 H 5.75 c -0.5116667,0 -0.8133333,-0.586667 -0.5,-1 l 2.5,-3.336667 c 0.25,-0.325 0.75,-0.325 1,0 z"
     fill-rule="1"
     id="path_0"
     style="stroke-width:1.66667;fill:#ffffff;fill-opacity:1" />
</svg>
