<?xml version="1.0" encoding="UTF-8" standalone="no"?>
<svg
   id="vector"
   width="24"
   height="24"
   viewBox="0 0 24 24"
   version="1.1"
   sodipodi:docname="image_copy.svg"
   inkscape:version="1.2.2 (732a01da63, 2022-12-09)"
   xmlns:inkscape="http://www.inkscape.org/namespaces/inkscape"
   xmlns:sodipodi="http://sodipodi.sourceforge.net/DTD/sodipodi-0.dtd"
   xmlns="http://www.w3.org/2000/svg"
   xmlns:svg="http://www.w3.org/2000/svg">
  <defs
     id="defs5797" />
  <sodipodi:namedview
     id="namedview5795"
     pagecolor="#ffffff"
     bordercolor="#000000"
     borderopacity="0.25"
     inkscape:showpageshadow="2"
     inkscape:pageopacity="0.0"
     inkscape:pagecheckerboard="0"
     inkscape:deskcolor="#d1d1d1"
     showgrid="false"
     inkscape:zoom="50.25"
     inkscape:cx="8"
     inkscape:cy="8.0099502"
     inkscape:window-width="1920"
     inkscape:window-height="991"
     inkscape:window-x="-9"
     inkscape:window-y="-9"
     inkscape:window-maximized="1"
     inkscape:current-layer="vector" />
  <path
     fill="#ffffff"
     d="M 22,16 V 4 C 22,2.9 21.1,2 20,2 H 8 C 6.9,2 6,2.9 6,4 v 12 c 0,1.1 0.9,2 2,2 h 12 c 1.1,0 2,-0.9 2,-2 z m -10.6,-3.469333 1.630667,2.18 2.58,-3.221334 c 0.2,-0.249333 0.578666,-0.249333 0.778666,0 l 2.96,3.7 C 19.610667,15.52 19.38,16 18.96,16 H 9 C 8.5906667,16 8.3493333,15.530667 8.6,15.2 l 2,-2.669333 c 0.2,-0.26 0.6,-0.26 0.8,0 z M 2,20 V 7 C 2,6.4506667 2.4493333,6 3,6 3.5506667,6 4,6.4506667 4,7 v 12 c 0,0.550667 0.4506667,1 1,1 h 12 c 0.550667,0 1,0.449333 1,1 0,0.550667 -0.449333,1 -1,1 H 4 C 2.9,22 2,21.1 2,20 Z"
     fill-rule="1"
     id="path_0"
     style="stroke-width:1.33333" />
</svg>
