<?xml version="1.0" encoding="UTF-8" standalone="no"?>
<svg
   id="vector"
   width="24"
   height="24"
   viewBox="0 0 24 24"
   version="1.1"
   sodipodi:docname="location_pin.svg"
   inkscape:version="1.2.2 (732a01da63, 2022-12-09)"
   xmlns:inkscape="http://www.inkscape.org/namespaces/inkscape"
   xmlns:sodipodi="http://sodipodi.sourceforge.net/DTD/sodipodi-0.dtd"
   xmlns="http://www.w3.org/2000/svg"
   xmlns:svg="http://www.w3.org/2000/svg">
  <defs
     id="defs11645" />
  <sodipodi:namedview
     id="namedview11643"
     pagecolor="#ffffff"
     bordercolor="#000000"
     borderopacity="0.25"
     inkscape:showpageshadow="2"
     inkscape:pageopacity="0.0"
     inkscape:pagecheckerboard="0"
     inkscape:deskcolor="#d1d1d1"
     showgrid="false"
     inkscape:zoom="40.2"
     inkscape:cx="10"
     inkscape:cy="10.012438"
     inkscape:window-width="1920"
     inkscape:window-height="991"
     inkscape:window-x="-9"
     inkscape:window-y="-9"
     inkscape:window-maximized="1"
     inkscape:current-layer="vector" />
  <path
     fill="#ffffff"
     d="M 4.9165,9.1905085 C 4.9165,5.2151618 8.1316618,2 12.107008,2 c 3.975347,0 7.190509,3.2151618 7.190509,7.1905085 0,4.2835135 -4.540277,10.1900775 -6.399507,12.4396915 -0.410971,0.493067 -1.160801,0.493067 -1.571649,0 C 9.4567773,19.380586 4.9165,13.474022 4.9165,9.1905085 Z m 4.6224961,0 c 0,1.4175655 1.1504469,2.5681355 2.5680119,2.5681355 1.417566,0 2.568013,-1.15057 2.568013,-2.5681355 0,-1.4175655 -1.150447,-2.5680124 -2.568013,-2.5680124 -1.417565,0 -2.5680119,1.1504469 -2.5680119,2.5680124 z"
     fill-rule="1"
     id="path_0"
     style="stroke-width:1.23267" />
</svg>
