<?xml version="1.0" encoding="UTF-8" standalone="no"?>
<svg
   viewBox="0 0 24 24"
   height="24"
   width="24"
   preserveAspectRatio="xMidYMid"
   class=""
   version="1.1"
   id="svg15557"
   sodipodi:docname="lock_fill.svg"
   inkscape:version="1.2.2 (732a01da63, 2022-12-09)"
   xmlns:inkscape="http://www.inkscape.org/namespaces/inkscape"
   xmlns:sodipodi="http://sodipodi.sourceforge.net/DTD/sodipodi-0.dtd"
   xmlns="http://www.w3.org/2000/svg"
   xmlns:svg="http://www.w3.org/2000/svg">
  <defs
     id="defs15561" />
  <sodipodi:namedview
     id="namedview15559"
     pagecolor="#ffffff"
     bordercolor="#000000"
     borderopacity="0.25"
     inkscape:showpageshadow="2"
     inkscape:pageopacity="0.0"
     inkscape:pagecheckerboard="0"
     inkscape:deskcolor="#d1d1d1"
     showgrid="false"
     inkscape:zoom="23.688077"
     inkscape:cx="14.986442"
     inkscape:cy="11.165955"
     inkscape:window-width="1920"
     inkscape:window-height="991"
     inkscape:window-x="-9"
     inkscape:window-y="-9"
     inkscape:window-maximized="1"
     inkscape:current-layer="svg15557" />
  <path
     fill="#ffffff"
     d="m 17.709777,7.7160055 c 0,-1.0392715 -0.257798,-1.9939537 -0.773412,-2.8640468 C 16.428812,3.9738044 15.735958,3.280965 14.857822,2.7734122 13.987729,2.2578052 13.037077,2 12.005867,2 10.966595,2 10.007882,2.2578052 9.129728,2.7734122 8.2596525,3.280965 7.566799,3.9738044 7.051185,4.8519587 6.5436322,5.7220518 6.2898646,6.676734 6.2898646,7.7160055 v 2.187298 C 6.2415153,9.9194258 6.144852,9.9637269 5.9998394,10.036242 5.4761643,10.318206 5.0773841,10.717004 4.8034636,11.2326 4.6503899,11.514582 4.5416349,11.82476 4.4771809,12.163117 4.412727,12.501491 4.3805,13.005013 4.3805,13.673683 v 4.265859 c 0,0.668688 0.032227,1.17221 0.096681,1.510584 0.064454,0.338357 0.173209,0.648606 0.3262827,0.93057 0.2739205,0.51549 0.6727007,0.914306 1.1963758,1.19627 0.2739029,0.153091 0.5800503,0.261811 0.9184248,0.326335 0.3464179,0.06435 0.8499402,0.0967 1.5105667,0.0967 h 7.141979 c 0.660627,0 1.160119,-0.03235 1.498475,-0.0967 0.346436,-0.06452 0.656596,-0.173244 0.930517,-0.326335 0.515614,-0.273832 0.914482,-0.672648 1.196446,-1.19627 0.152915,-0.281964 0.261812,-0.592213 0.326159,-0.93057 0.06452,-0.338374 0.0967,-0.841896 0.0967,-1.510584 v -4.265859 c 0,-0.66867 -0.03217,-1.172192 -0.0967,-1.510566 C 19.45806,11.82476 19.349163,11.514582 19.196248,11.2326 18.914284,10.708943 18.515416,10.310145 17.999802,10.036242 17.854789,9.9637269 17.758108,9.9194258 17.709777,9.9033035 Z m -9.1359335,0 c 0,-0.6203384 0.1530737,-1.1923452 0.4592212,-1.7160203 0.3061298,-0.5317187 0.7210323,-0.9506518 1.2447073,-1.2567815 0.531719,-0.3061475 1.107756,-0.4592213 1.728095,-0.4592213 0.620338,0 1.192345,0.1530738 1.716002,0.4592213 0.523658,0.3061297 0.93856,0.7250628 1.244708,1.2567815 0.306147,0.5236751 0.459221,1.0956819 0.459221,1.7160203 V 9.6132784 H 8.5738435 Z"
     id="path15555"
     style="stroke-width:1.7678;fill:#ffffff;fill-opacity:1" />
</svg>
