<?xml version="1.0" encoding="UTF-8" standalone="no"?>
<svg
   version="1.1"
   id="svg1050"
   sodipodi:docname="media.svg"
   width="24"
   height="24"
   inkscape:version="1.2.2 (732a01da63, 2022-12-09)"
   xmlns:inkscape="http://www.inkscape.org/namespaces/inkscape"
   xmlns:sodipodi="http://sodipodi.sourceforge.net/DTD/sodipodi-0.dtd"
   xmlns="http://www.w3.org/2000/svg"
   xmlns:svg="http://www.w3.org/2000/svg">
  <defs
     id="defs1054" />
  <sodipodi:namedview
     id="namedview1052"
     pagecolor="#ffffff"
     bordercolor="#000000"
     borderopacity="0.25"
     inkscape:showpageshadow="2"
     inkscape:pageopacity="0.0"
     inkscape:pagecheckerboard="0"
     inkscape:deskcolor="#d1d1d1"
     showgrid="false"
     inkscape:zoom="11.313709"
     inkscape:cx="54.800773"
     inkscape:cy="0.57452423"
     inkscape:window-width="1920"
     inkscape:window-height="991"
     inkscape:window-x="-9"
     inkscape:window-y="-9"
     inkscape:window-maximized="1"
     inkscape:current-layer="svg1050" />
  <path
     fill="#ffffff"
     id="svg-image"
     d="m 3.818,3.75 h 16.364 c 0.863,0 1.727,0.827 1.811,1.696 L 22,5.583 v 12.834 c 0,0.871 -0.82,1.741 -1.682,1.826 L 20.182,20.25 H 3.818 c -0.95,0 -1.736,-0.745 -1.812,-1.684 L 2,18.417 V 5.583 C 2,4.713 2.82,3.842 3.682,3.757 L 3.818,3.75 h 16.364 z m 5.081,8.22 -3.781,5.044 c -0.269,0.355 -0.052,0.736 0.39,0.736 h 12.955 c 0.442,-0.011 0.701,-0.402 0.421,-0.758 l -2.682,-3.449 c -0.216,-0.269 -0.625,-0.28 -0.841,-0.011 l -2.262,2.727 -3.339,-4.3 C 9.545,11.679 9.114,11.679 8.899,11.97 Z M 17.25,6.75 c -0.966,0 -1.75,0.784 -1.75,1.75 0,0.966 0.784,1.75 1.75,1.75 C 18.216,10.25 19,9.466 19,8.5 19,7.534 18.216,6.75 17.25,6.75 Z" />
</svg>
