<?xml version="1.0" encoding="UTF-8" standalone="no"?>
<svg
   id="vector"
   width="24"
   height="24"
   viewBox="0 0 24 24"
   version="1.1"
   sodipodi:docname="mic_slash.svg"
   inkscape:version="1.2.2 (732a01da63, 2022-12-09)"
   xmlns:inkscape="http://www.inkscape.org/namespaces/inkscape"
   xmlns:sodipodi="http://sodipodi.sourceforge.net/DTD/sodipodi-0.dtd"
   xmlns="http://www.w3.org/2000/svg"
   xmlns:svg="http://www.w3.org/2000/svg">
  <defs
     id="defs5832" />
  <sodipodi:namedview
     id="namedview5830"
     pagecolor="#ffffff"
     bordercolor="#000000"
     borderopacity="0.25"
     inkscape:showpageshadow="2"
     inkscape:pageopacity="0.0"
     inkscape:pagecheckerboard="0"
     inkscape:deskcolor="#d1d1d1"
     showgrid="false"
     inkscape:zoom="33.5"
     inkscape:cx="12"
     inkscape:cy="12.014925"
     inkscape:window-width="1920"
     inkscape:window-height="991"
     inkscape:window-x="-9"
     inkscape:window-y="-9"
     inkscape:window-maximized="1"
     inkscape:current-layer="vector" />
  <g
     id="g_0"
     transform="matrix(0.83333333,0,0,0.83333333,2.0001875,2)">
    <path
       fill="#ffffff"
       d="M 20.9244,11.3684 H 18.757 c 0,0.9348 -0.2039,1.8063 -0.5482,2.5895 l 1.5682,1.5537 c 0.7139,-1.2379 1.1474,-2.64 1.1474,-4.1432 z m -5.1252,0.2148 c 0,-0.0758 0.0255,-0.139 0.0255,-0.2148 V 3.7895 C 15.8247,1.6926 14.1164,0 12,0 9.8836,0 8.1753,1.6926 8.1753,3.7895 V 4.0168 Z M 1.3353,2.0653 c -0.4471,0.4429 -0.4471,1.1612 0,1.6042 l 6.8527,6.7894 v 0.9095 c 0,2.0969 1.6956,3.7895 3.812,3.7895 0.2805,0 0.561,-0.0379 0.8287,-0.1011 l 2.1164,2.0969 c -0.9052,0.4168 -1.9124,0.6568 -2.9451,0.6568 -3.5188,0 -6.7571,-2.6526 -6.7571,-6.4421 H 3.0756 c 0,4.3074 3.4678,7.8695 7.6495,8.4884 v 2.88 C 10.7251,23.4345 11.2959,24 12,24 c 0.7041,0 1.2749,-0.5655 1.2749,-1.2632 v -2.88 c 1.1602,-0.1642 2.2566,-0.5684 3.2383,-1.1368 l 4.5314,4.4789 c 0.4478,0.4426 1.1728,0.4421 1.6201,-10e-4 0.4471,-0.443 0.4471,-1.1612 0,-1.6042 L 2.9545,2.0653 c -0.4471,-0.443 -1.1721,-0.443 -1.6192,0 z"
       id="path5826" />
  </g>
</svg>
