<?xml version="1.0" encoding="UTF-8" standalone="no"?>
<svg
   width="24"
   height="24"
   viewBox="0 0 26 26"
   version="1.1"
   id="svg18672"
   sodipodi:docname="mute.svg"
   inkscape:version="1.2.2 (732a01da63, 2022-12-09)"
   xmlns:inkscape="http://www.inkscape.org/namespaces/inkscape"
   xmlns:sodipodi="http://sodipodi.sourceforge.net/DTD/sodipodi-0.dtd"
   xmlns="http://www.w3.org/2000/svg"
   xmlns:svg="http://www.w3.org/2000/svg">
  <defs
     id="defs30006" />
  <sodipodi:namedview
     id="namedview30004"
     pagecolor="#ffffff"
     bordercolor="#000000"
     borderopacity="0.25"
     inkscape:showpageshadow="2"
     inkscape:pageopacity="0.0"
     inkscape:pagecheckerboard="0"
     inkscape:deskcolor="#d1d1d1"
     showgrid="false"
     inkscape:zoom="33.5"
     inkscape:cx="10.776119"
     inkscape:cy="10.820896"
     inkscape:window-width="1920"
     inkscape:window-height="991"
     inkscape:window-x="-9"
     inkscape:window-y="-9"
     inkscape:window-maximized="1"
     inkscape:current-layer="svg18672" />
  <g
     id="layer1"
     transform="matrix(0.90988625,0,0,0.90988625,0.9629632,0.96296325)"
     style="fill:#ffffff;fill-opacity:1">
    <g
       id="g19898"
       transform="matrix(1.5079363,0,0,1.3866973,-16.269724,-14.205528)"
       style="fill:#ffffff;fill-opacity:1">
      <path
         fill="#ffffff"
         d="m 12.3925,12.0873 c -0.2034,0.2034 -0.2034,0.5331 0,0.7365 l 13.44,13.44 c 0.2034,0.2034 0.5332,0.2034 0.7366,0 l 0.7365,-0.7365 c 0.2034,-0.2034 0.2034,-0.5332 0,-0.7366 l -5.2223,-5.2223 v -7.6927 c 0,-0.4631 -0.5587,-0.6958 -0.887,-0.3692 -0.306,0.3043 -0.6363,0.6333 -0.8942,0.8913 l -2.6916,2.6978 -3.7449,-3.7449 c -0.2034,-0.2034 -0.5331,-0.2034 -0.7365,0 z"
         id="path_1"
         style="fill:#ffffff;fill-opacity:1" />
      <path
         fill="#ffffff"
         d="m 11.6667,17.9186 v 5.2083 c 0,0.5729 0.4687,1.0417 1.0416,1.0417 h 3.125 l 4.4688,3.4271 0.9598,0.6782 c 0.345,0.2437 0.8214,-0.003 0.8214,-0.4254 V 24.598 l -7.7211,-7.7211 h -1.6539 c -0.5729,0 -1.0416,0.4688 -1.0416,1.0417 z"
         id="path_2"
         style="fill:#ffffff;fill-opacity:1" />
    </g>
  </g>
</svg>
