<?xml version="1.0" encoding="UTF-8" standalone="no"?>
<svg
   id="vector"
   width="24"
   height="24"
   viewBox="0 0 24 24"
   version="1.1"
   sodipodi:docname="no_broadcast_gray.svg"
   inkscape:version="1.2.2 (732a01da63, 2022-12-09)"
   xmlns:inkscape="http://www.inkscape.org/namespaces/inkscape"
   xmlns:sodipodi="http://sodipodi.sourceforge.net/DTD/sodipodi-0.dtd"
   xmlns="http://www.w3.org/2000/svg"
   xmlns:svg="http://www.w3.org/2000/svg">
  <defs
     id="defs17498" />
  <sodipodi:namedview
     id="namedview17496"
     pagecolor="#ffffff"
     bordercolor="#000000"
     borderopacity="0.25"
     inkscape:showpageshadow="2"
     inkscape:pageopacity="0.0"
     inkscape:pagecheckerboard="0"
     inkscape:deskcolor="#d1d1d1"
     showgrid="false"
     inkscape:zoom="33.5"
     inkscape:cx="12"
     inkscape:cy="12.014925"
     inkscape:window-width="1920"
     inkscape:window-height="991"
     inkscape:window-x="-9"
     inkscape:window-y="-9"
     inkscape:window-maximized="1"
     inkscape:current-layer="vector" />
  <path
     fill="#8696a0"
     d="m 7.9589896,8.5635644 c 0,-0.1139091 0.059851,-0.2191302 0.1563837,-0.2780154 L 12.002762,5.9397941 c 0.395786,-0.2451941 0.921891,0.024133 0.921891,0.4730123 v 9.4390086 c 0,0.438261 -0.504868,0.709519 -0.902584,0.483631 l -3.8989731,-2.2164 A 0.32435129,0.32435129 0 0 1 7.9589896,13.837169 V 8.562599 Z M 2,10.262548 C 2,9.2228856 2.8890701,8.3801514 3.9866516,8.3801514 h 2.6546609 c 0.1795516,0 0.3243513,0.1447997 0.3243513,0.3253166 v 4.995589 c 0,0.179552 -0.1447997,0.324352 -0.3243513,0.324352 H 6.0601831 l 0.912238,3.230963 a 0.51162554,0.51162554 0 0 1 -0.3687565,0.63905 L 5.6499173,18.136754 A 0.54637747,0.54637747 0 0 1 4.9934921,17.758344 L 3.9605877,14.097809 a 0.53093217,0.53093217 0 0 1 -0.015445,-0.0724 C 2.8668674,14.004171 2,13.170125 2,12.143978 v -1.882396 z"
     fill-rule="1"
     id="path_0"
     style="stroke-width:0.965331" />
  <path
     fill="#8696a0"
     d="m 15.429688,13.172056 -0.08591,0.08495 0.08591,0.08591 1.023251,1.023251 0.08591,0.08591 0.08495,-0.08591 1.962518,-1.962519 1.962518,1.962519 0.08495,0.08591 0.08591,-0.08591 1.023251,-1.023251 0.08591,-0.08591 -0.08591,-0.08495 -1.962518,-1.962518 1.962518,-1.9625191 0.08591,-0.084949 -0.08591,-0.085914 -1.023251,-1.0232511 -0.08591,-0.085914 -0.08495,0.085914 -1.962518,1.9625182 -1.962518,-1.9625182 -0.08495,-0.085914 -0.08591,0.085914 -1.023251,1.0232511 -0.08591,0.085914 0.08591,0.084949 1.962518,1.9625191 z"
     stroke="#8696a0"
     stroke-width="0.241333"
     id="path_1" />
</svg>
