<?xml version="1.0" encoding="UTF-8" standalone="no"?>
<svg
   id="vector"
   width="24"
   height="24"
   viewBox="0 0 24 24"
   version="1.1"
   sodipodi:docname="notification_bell.svg"
   inkscape:version="1.2.2 (732a01da63, 2022-12-09)"
   xmlns:inkscape="http://www.inkscape.org/namespaces/inkscape"
   xmlns:sodipodi="http://sodipodi.sourceforge.net/DTD/sodipodi-0.dtd"
   xmlns="http://www.w3.org/2000/svg"
   xmlns:svg="http://www.w3.org/2000/svg">
  <defs
     id="defs19328" />
  <sodipodi:namedview
     id="namedview19326"
     pagecolor="#ffffff"
     bordercolor="#000000"
     borderopacity="0.25"
     inkscape:showpageshadow="2"
     inkscape:pageopacity="0.0"
     inkscape:pagecheckerboard="0"
     inkscape:deskcolor="#d1d1d1"
     showgrid="false"
     inkscape:zoom="20.1"
     inkscape:cx="8.0099502"
     inkscape:cy="10.074627"
     inkscape:window-width="1920"
     inkscape:window-height="991"
     inkscape:window-x="-9"
     inkscape:window-y="-9"
     inkscape:window-maximized="1"
     inkscape:current-layer="vector" />
  <path
     fill="#ffffff"
     d="m 12.00086,22 c 1.16,0 2.11,-0.923 2.11,-2.051 H 9.8908598 c 0,1.128 0.9400002,2.051 2.1100002,2.051 z m 6.328,-6.154 v -5.128 c 0,-3.149 -1.73,-5.785 -4.746,-6.482 V 3.539 c 0,-0.852 -0.706,-1.539 -1.582,-1.539 -0.875,0 -1.582,0.687 -1.582,1.539 V 4.236 C 7.3918598,4.933 5.6728598,7.559 5.6728598,10.718 v 5.128 l -1.36,1.323 c -0.665,0.646 -0.2,1.754 0.738,1.754 H 18.94086 c 0.939,0 1.413,-1.108 0.749,-1.754 l -1.36,-1.323 z"
     id="path_1"
     style="fill:#ffffff;fill-opacity:1" />
</svg>
