<?xml version="1.0" encoding="UTF-8" standalone="no"?>
<svg
   viewBox="0 0 24 24"
   height="24"
   width="24"
   preserveAspectRatio="xMidYMid meet"
   class=""
   fill="none"
   version="1.1"
   id="svg21386"
   sodipodi:docname="paint.svg"
   inkscape:version="1.2.2 (732a01da63, 2022-12-09)"
   xmlns:inkscape="http://www.inkscape.org/namespaces/inkscape"
   xmlns:sodipodi="http://sodipodi.sourceforge.net/DTD/sodipodi-0.dtd"
   xmlns="http://www.w3.org/2000/svg"
   xmlns:svg="http://www.w3.org/2000/svg">
  <defs
     id="defs21390" />
  <sodipodi:namedview
     id="namedview21388"
     pagecolor="#ffffff"
     bordercolor="#000000"
     borderopacity="0.25"
     inkscape:showpageshadow="2"
     inkscape:pageopacity="0.0"
     inkscape:pagecheckerboard="0"
     inkscape:deskcolor="#d1d1d1"
     showgrid="false"
     inkscape:zoom="33.5"
     inkscape:cx="12"
     inkscape:cy="12.014925"
     inkscape:window-width="1920"
     inkscape:window-height="991"
     inkscape:window-x="-9"
     inkscape:window-y="-9"
     inkscape:window-maximized="1"
     inkscape:current-layer="svg21386" />
  <path
     fill-rule="evenodd"
     clip-rule="evenodd"
     d="M 2,17.671756 V 22 H 6.3542692 L 18.498954,9.8059523 14.144864,5.4787423 Z M 15.90855,9.8131236 5.5936896,20.168925 H 3.8310377 V 18.428078 L 14.151443,8.0667785 Z"
     fill="white"
     id="path21382"
     style="fill:#ffffff;fill-opacity:1;stroke-width:0.939881" />
  <path
     fill-rule="evenodd"
     clip-rule="evenodd"
     d="m 17.23989,2.4037539 -2.05533,2.0426424 4.354654,4.3278115 2.054203,-2.0414957 c 0.264858,-0.2632042 0.406592,-0.5693891 0.406592,-0.8852453 0,-0.3158563 -0.141734,-0.6220318 -0.406592,-0.8852359 L 19.01899,2.4037539 C 18.754132,2.1405027 18.446415,2 18.129487,2 17.812466,2 17.504749,2.1405027 17.23989,2.4037539 Z m 2.299324,3.7889498 -1.757107,-1.7463074 0.34738,-0.3452276 1.757107,1.7462981 z"
     fill="white"
     id="path21384"
     style="fill:#ffffff;fill-opacity:1;stroke-width:0.939881" />
</svg>
