<?xml version="1.0" encoding="UTF-8" standalone="no"?>
<svg
   viewBox="0 0 24 24"
   height="24"
   width="24"
   preserveAspectRatio="xMidYMid"
   class=""
   version="1.1"
   x="0px"
   y="0px"
   enable-background="new 0 0 34 34"
   xml:space="preserve"
   id="svg24057"
   sodipodi:docname="pause.svg"
   inkscape:version="1.2.2 (732a01da63, 2022-12-09)"
   xmlns:inkscape="http://www.inkscape.org/namespaces/inkscape"
   xmlns:sodipodi="http://sodipodi.sourceforge.net/DTD/sodipodi-0.dtd"
   xmlns="http://www.w3.org/2000/svg"
   xmlns:svg="http://www.w3.org/2000/svg"><defs
   id="defs24061" /><sodipodi:namedview
   id="namedview24059"
   pagecolor="#ffffff"
   bordercolor="#000000"
   borderopacity="0.25"
   inkscape:showpageshadow="2"
   inkscape:pageopacity="0.0"
   inkscape:pagecheckerboard="0"
   inkscape:deskcolor="#d1d1d1"
   showgrid="false"
   inkscape:zoom="23.647059"
   inkscape:cx="17"
   inkscape:cy="17.021144"
   inkscape:window-width="1920"
   inkscape:window-height="991"
   inkscape:window-x="-9"
   inkscape:window-y="-9"
   inkscape:window-maximized="1"
   inkscape:current-layer="svg24057" />
    <path
   fill="#ffffff"
   d="M 3.3335,20.888889 C 3.3335,21.444444 3.7779444,22 4.3335,22 h 4 c 0.555556,0 1,-0.444444 1,-1.111111 V 3.1111111 c 0,-0.5555555 -0.444444,-1 -1,-1 h -4 c -0.4444444,-0.1111111 -1,0.3333333 -1,1 z M 15.555722,2 C 15.000167,2 14.444611,2.4444444 14.444611,3 V 20.888889 C 14.444611,21.444444 14.889056,22 15.555722,22 h 4 c 0.555556,0 1.111111,-0.444444 1.111111,-1.111111 V 3.1111111 c 0,-0.5555555 -0.444444,-1 -1.111111,-1 C 19.555722,2 15.555722,2 15.555722,2 Z"
   id="path24055"
   style="stroke-width:1.11111">
    </path>
</svg>
