<?xml version="1.0" encoding="UTF-8" standalone="no"?>
<svg
   id="vector"
   width="24"
   height="24"
   viewBox="0 0 24 24"
   version="1.1"
   sodipodi:docname="search.svg"
   inkscape:version="1.2.2 (732a01da63, 2022-12-09)"
   xmlns:inkscape="http://www.inkscape.org/namespaces/inkscape"
   xmlns:sodipodi="http://sodipodi.sourceforge.net/DTD/sodipodi-0.dtd"
   xmlns="http://www.w3.org/2000/svg"
   xmlns:svg="http://www.w3.org/2000/svg">
  <defs
     id="defs26119" />
  <sodipodi:namedview
     id="namedview26117"
     pagecolor="#ffffff"
     bordercolor="#000000"
     borderopacity="0.25"
     inkscape:showpageshadow="2"
     inkscape:pageopacity="0.0"
     inkscape:pagecheckerboard="0"
     inkscape:deskcolor="#d1d1d1"
     showgrid="false"
     inkscape:zoom="33.5"
     inkscape:cx="8.9850746"
     inkscape:cy="9.0298507"
     inkscape:window-width="1920"
     inkscape:window-height="991"
     inkscape:window-x="-9"
     inkscape:window-y="-9"
     inkscape:window-maximized="1"
     inkscape:current-layer="vector" />
  <path
     fill="#ffffff"
     d="M 16.285714,14.571429 H 15.371429 L 15.028571,14.228571 C 16.171429,12.971429 16.857143,11.257143 16.857143,9.4285714 16.857143,5.3142857 13.542857,2 9.4285714,2 5.3142857,2 2,5.3142857 2,9.4285714 c 0,4.1142856 3.3142857,7.4285716 7.4285714,7.4285716 1.8285716,0 3.5428576,-0.685714 4.7999996,-1.828572 l 0.342858,0.342858 v 0.914285 L 20.285714,22 22,20.285714 Z m -6.8571426,0 c -2.8571428,0 -5.1428571,-2.285715 -5.1428571,-5.1428576 0,-2.8571428 2.2857143,-5.1428571 5.1428571,-5.1428571 2.8571426,0 5.1428576,2.2857143 5.1428576,5.1428571 0,2.8571426 -2.285715,5.1428576 -5.1428576,5.1428576 z"
     id="path_0"
     style="stroke-width:1.14286" />
</svg>
