<?xml version="1.0" encoding="UTF-8" standalone="no"?>
<svg
   id="vector"
   width="24"
   height="24"
   viewBox="0 0 24 24"
   version="1.1"
   sodipodi:docname="search_rounded.svg"
   inkscape:version="1.2.2 (732a01da63, 2022-12-09)"
   xmlns:inkscape="http://www.inkscape.org/namespaces/inkscape"
   xmlns:sodipodi="http://sodipodi.sourceforge.net/DTD/sodipodi-0.dtd"
   xmlns="http://www.w3.org/2000/svg"
   xmlns:svg="http://www.w3.org/2000/svg">
  <defs
     id="defs28061" />
  <sodipodi:namedview
     id="namedview28059"
     pagecolor="#ffffff"
     bordercolor="#000000"
     borderopacity="0.25"
     inkscape:showpageshadow="2"
     inkscape:pageopacity="0.0"
     inkscape:pagecheckerboard="0"
     inkscape:deskcolor="#d1d1d1"
     showgrid="false"
     inkscape:zoom="33.5"
     inkscape:cx="8.9850746"
     inkscape:cy="10.014925"
     inkscape:window-width="1920"
     inkscape:window-height="991"
     inkscape:window-x="-9"
     inkscape:window-y="-9"
     inkscape:window-maximized="1"
     inkscape:current-layer="vector" />
  <path
     fill="#ffffff"
     d="m 9.894589,2 c 4.214848,0 7.631589,3.4167413 7.631589,7.631589 0,1.868002 -0.671159,3.579268 -1.785371,4.905691 0.280737,0.03358 0.552738,0.158737 0.768422,0.374421 l 4.842112,4.842112 c 0.51379,0.513895 0.51379,1.346949 0,1.860844 -0.513896,0.513791 -1.346949,0.513791 -1.860845,0 L 14.648385,16.772546 C 14.403227,16.527388 14.275016,16.209492 14.263858,15.888229 13.02733,16.754862 11.520275,17.263178 9.894589,17.263178 5.6797413,17.263178 2.263,13.846437 2.263,9.631589 2.263,5.4167413 5.6797413,2 9.894589,2 Z m 0,1.5789494 c -3.3427413,0 -6.0526396,2.7098983 -6.0526396,6.0526396 0,3.342741 2.7098983,6.05264 6.0526396,6.05264 3.342741,0 6.05264,-2.709899 6.05264,-6.05264 0,-3.3427413 -2.709899,-6.0526396 -6.05264,-6.0526396 z"
     id="path_0"
     style="stroke-width:1.05263" />
</svg>
