<?xml version="1.0" encoding="UTF-8" standalone="no"?>
<svg
   id="vector"
   width="24"
   height="24"
   viewBox="0 0 24 24"
   version="1.1"
   sodipodi:docname="select_all.svg"
   inkscape:version="1.2.2 (732a01da63, 2022-12-09)"
   xmlns:inkscape="http://www.inkscape.org/namespaces/inkscape"
   xmlns:sodipodi="http://sodipodi.sourceforge.net/DTD/sodipodi-0.dtd"
   xmlns="http://www.w3.org/2000/svg"
   xmlns:svg="http://www.w3.org/2000/svg">
  <defs
     id="defs47396" />
  <sodipodi:namedview
     id="namedview47394"
     pagecolor="#ffffff"
     bordercolor="#000000"
     borderopacity="0.25"
     inkscape:showpageshadow="2"
     inkscape:pageopacity="0.0"
     inkscape:pagecheckerboard="0"
     inkscape:deskcolor="#d1d1d1"
     showgrid="false"
     inkscape:zoom="33.5"
     inkscape:cx="12"
     inkscape:cy="12.014925"
     inkscape:window-width="1920"
     inkscape:window-height="991"
     inkscape:window-x="-9"
     inkscape:window-y="-9"
     inkscape:window-maximized="1"
     inkscape:current-layer="vector" />
  <path
     fill="#ffffff"
     d="M 2,4.2222222 H 4.2222222 V 2 C 3,2 2,3 2,4.2222222 Z M 2,13.111111 H 4.2222222 V 10.888889 H 2 Z M 6.4444444,22 H 8.6666667 V 19.777778 H 6.4444444 Z M 2,8.6666667 H 4.2222222 V 6.4444444 H 2 Z M 13.111111,2 h -2.222222 v 2.2222222 h 2.222222 z m 6.666667,0 V 4.2222222 H 22 C 22,3 21,2 19.777778,2 Z M 4.2222222,22 V 19.777778 H 2 C 2,21 3,22 4.2222222,22 Z M 2,17.555556 H 4.2222222 V 15.333333 H 2 Z M 8.6666667,2 H 6.4444444 v 2.2222222 h 2.2222223 z m 2.2222223,20 h 2.222222 v -2.222222 h -2.222222 z m 8.888889,-8.888889 H 22 v -2.222222 h -2.222222 z m 0,8.888889 C 21,22 22,21 22,19.777778 h -2.222222 z m 0,-13.3333333 H 22 V 6.4444444 h -2.222222 z m 0,8.8888893 H 22 V 15.333333 H 19.777778 Z M 15.333333,22 h 2.222223 v -2.222222 h -2.222223 z m 0,-17.7777778 h 2.222223 V 2 H 15.333333 Z M 6.4444444,17.555556 H 17.555556 V 6.4444444 H 6.4444444 Z M 8.6666667,8.6666667 H 15.333333 V 15.333333 H 8.6666667 Z"
     id="path_0"
     style="stroke-width:1.11111" />
</svg>
