<?xml version="1.0" encoding="UTF-8" standalone="no"?>
<svg
   viewBox="0 0 24.000001 18"
   height="24"
   preserveAspectRatio="xMidYMid"
   class=""
   version="1.1"
   x="0px"
   y="0px"
   enable-background="new 0 0 16 15"
   xml:space="preserve"
   id="svg31949"
   sodipodi:docname="star_rounded.svg"
   width="24"
   inkscape:version="1.2.2 (732a01da63, 2022-12-09)"
   xmlns:inkscape="http://www.inkscape.org/namespaces/inkscape"
   xmlns:sodipodi="http://sodipodi.sourceforge.net/DTD/sodipodi-0.dtd"
   xmlns="http://www.w3.org/2000/svg"
   xmlns:svg="http://www.w3.org/2000/svg"><defs
   id="defs31953" /><sodipodi:namedview
   id="namedview31951"
   pagecolor="#ffffff"
   bordercolor="#000000"
   borderopacity="0.25"
   inkscape:showpageshadow="2"
   inkscape:pageopacity="0.0"
   inkscape:pagecheckerboard="0"
   inkscape:deskcolor="#d1d1d1"
   showgrid="false"
   inkscape:zoom="40.2"
   inkscape:cx="4.7263682"
   inkscape:cy="5.5099502"
   inkscape:window-width="1920"
   inkscape:window-height="991"
   inkscape:window-x="-9"
   inkscape:window-y="-9"
   inkscape:window-maximized="1"
   inkscape:current-layer="svg31949" />
    <path
   fill="#ffffff"
   d="M 11.592439,15.056062 6.8134563,18.305771 C 6.2399784,18.688089 5.2841819,18.114611 5.4753412,17.349974 L 7.195775,11.997513 c 0.1911592,-0.382318 0,-0.764637 -0.3823187,-0.955796 L 2.4167923,7.6008496 C 1.6521551,7.0273717 2.0344737,6.0715752 2.7991109,6.0715752 L 8.5338901,5.8804159 c 0.3823185,0 0.5734779,-0.1911593 0.7646371,-0.5734779 L 11.21012,-0.04552249 c 0.19116,-0.76463721 1.338115,-0.76463721 1.529274,0 L 14.650988,5.306938 c 0.191159,0.3823186 0.382319,0.5734779 0.764637,0.5734779 l 5.734779,0.1911593 c 0.764638,0 1.146955,0.9557965 0.573478,1.5292744 l -4.587823,3.4408674 c -0.19116,0.191159 -0.382319,0.573478 -0.382319,0.955796 l 1.720434,5.54362 c 0.191159,0.764638 -0.573479,1.338115 -1.338115,0.955797 l -4.778983,-3.249709 c -0.191159,-0.382318 -0.573478,-0.382318 -0.764637,-0.191159 z"
   id="path31947"
   style="stroke-width:1.91159">
    </path>
</svg>
