<?xml version="1.0" encoding="UTF-8" standalone="no"?>
<svg
   viewBox="0 0 24 24"
   height="24"
   width="24"
   preserveAspectRatio="xMidYMid meet"
   class=""
   fill="none"
   version="1.1"
   id="svg64884"
   sodipodi:docname="stickers.svg"
   inkscape:version="1.2.2 (732a01da63, 2022-12-09)"
   xmlns:inkscape="http://www.inkscape.org/namespaces/inkscape"
   xmlns:sodipodi="http://sodipodi.sourceforge.net/DTD/sodipodi-0.dtd"
   xmlns="http://www.w3.org/2000/svg"
   xmlns:svg="http://www.w3.org/2000/svg">
  <defs
     id="defs64888" />
  <sodipodi:namedview
     id="namedview64886"
     pagecolor="#ffffff"
     bordercolor="#000000"
     borderopacity="0.25"
     inkscape:showpageshadow="2"
     inkscape:pageopacity="0.0"
     inkscape:pagecheckerboard="0"
     inkscape:deskcolor="#d1d1d1"
     showgrid="false"
     inkscape:zoom="33.5"
     inkscape:cx="12"
     inkscape:cy="12.014925"
     inkscape:window-width="1920"
     inkscape:window-height="991"
     inkscape:window-x="-9"
     inkscape:window-y="-9"
     inkscape:window-maximized="1"
     inkscape:current-layer="svg64884" />
  <path
     d="m 21.990244,10.157512 c -0.002,-0.1839426 -0.0043,-0.3728367 -0.0092,-0.5477513 -0.02,-0.7675941 -0.05933,-1.3472941 -0.167029,-1.9379833 C 21.690372,6.9901264 21.409354,6.1926021 21.114243,5.6189015 20.814084,5.0322023 20.418317,4.4983451 19.943701,4.0285858 19.472037,3.5598359 18.933047,3.1675445 18.33673,2.8677099 17.762411,2.5768552 16.960687,2.2964852 16.271713,2.1745458 15.683395,2.0685953 15.100981,2.0285614 14.316303,2.0075732 c -0.317109,-0.008 -3.596759,-0.011999 -4.6178401,0 C 8.9027384,2.0275616 8.3194103,2.0685953 7.7290924,2.1745458 7.0420611,2.2974756 6.2408991,2.5764172 5.6635513,2.8682622 5.0692529,3.1671064 4.5297868,3.559893 4.0561421,4.0296523 3.5844878,4.4964024 3.1892538,5.0297645 2.8861243,5.6194634 2.5929652,6.1911642 2.3101668,6.9881361 2.185523,7.6697776 2.0788201,8.2604668 2.0395005,8.8551556 2.0185599,9.6097607 2.0105798,9.8866168 2,12.490215 2,12.490215 c 0,0.519754 0.01057,1.646205 0.01855,1.92408 0.019941,0.754586 0.061279,1.348237 0.1669726,1.936936 0.1256437,0.686688 0.4081659,1.481937 0.7013251,2.052638 0.3021391,0.589651 0.6918117,1.129593 1.1654564,1.598305 0.4716543,0.468807 1.0181769,0.85448 1.6134751,1.154353 0.576348,0.290826 1.3762815,0.569939 2.0643127,0.692878 0.084753,0.01505 0.1705151,0.02514 0.2582582,0.03714 0.4776346,0.0679 0.8306255,0.09028 1.6283497,0.111322 0.034901,9.52e-4 2.1119752,-0.02609 2.5706872,-0.03714 1.662204,-0.04 3.3445,-0.589652 4.567036,-1.716007 1.124737,-1.037509 2.123106,-1.971694 2.919878,-2.736279 1.23844,-1.189397 2.15358,-3.156139 2.26033,-4.877289 l 0.06495,-1.051411 c 9.52e-4,-0.295873 0,-0.498709 0,-0.667643 9.52e-4,-0.02305 -0.0083,-0.737636 -0.0093,-0.754586 z m -3.464296,5.881752 c -0.787725,0.756586 -1.793999,1.699342 -2.912832,2.730756 -0.586318,0.540704 -1.251961,0.902951 -2.001881,1.137783 0.05085,-0.142842 0.115702,-0.241307 0.144651,-0.398243 0.0419,-0.23388 0.0598,-0.460713 0.06676,-0.73954 0.003,-0.104941 0.009,-0.788678 0.009,-0.788678 0.01295,-0.48271 0.04181,-0.864479 0.106655,-1.219298 0.06885,-0.378816 0.178457,-0.708686 0.335012,-1.01551 0.159602,-0.310824 0.367961,-0.594699 0.619267,-0.843529 0.253306,-0.251878 0.540418,-0.457761 0.856575,-0.616696 0.31311,-0.157888 0.648121,-0.267876 1.033985,-0.336821 0.357962,-0.06399 0.730969,-0.09294 1.249485,-0.105894 0,0 0.381864,9.52e-4 0.698973,-0.003 0.300159,-0.008 0.521468,-0.02495 0.752872,-0.06599 0.185409,-0.034 0.31311,-0.104941 0.479663,-0.168839 -0.252258,0.934471 -0.733255,1.755907 -1.438227,2.433549 z m 1.647538,-4.950233 c -0.0279,0.149889 -0.07047,0.259497 -0.118273,0.352439 -0.0598,0.115988 -0.120463,0.208644 -0.200264,0.287588 -0.0878,0.08694 -0.154079,0.130558 -0.262734,0.185504 -0.10875,0.05495 -0.227404,0.08637 -0.36996,0.111322 -0.140652,0.02505 -0.297207,0.04038 -0.518516,0.04638 -0.308158,0.004 -0.68507,0 -0.68507,0 -0.611268,0.016 -1.049983,0.0499 -1.497745,0.129891 -0.525467,0.09399 -0.999131,0.249211 -1.442798,0.473092 -0.455761,0.228833 -1.060077,0.614315 -1.424991,0.976181 -0.361961,0.357772 -0.673166,0.793725 -0.905427,1.246438 -0.226356,0.441763 -0.458427,1.0736 -0.553179,1.595259 -0.08075,0.446809 -0.114844,0.894571 -0.129795,1.46032 0,0 -0.0073,0.683641 -0.0093,0.776583 -0.006,0.207883 -0.02143,0.36977 -0.04638,0.510708 -0.02495,0.13589 -0.05742,0.25083 -0.111321,0.355771 -0.0558,0.107989 -0.109036,0.18998 -0.194741,0.274923 -0.0878,0.08694 -0.169601,0.136176 -0.278351,0.191123 -0.0718,0.036 -0.160364,0.06523 -0.361771,0.100179 -0.02685,0.005 -0.257115,0.02333 -0.454523,0.02733 -0.02095,0 -0.9178352,0.01009 -0.9527362,0.009 C 8.915699,20.180155 8.3961831,20.151682 7.9923405,20.07169 7.4429135,19.973701 6.9462523,19.841429 6.5015189,19.616596 6.0458247,19.387668 5.6336497,19.091414 5.2726788,18.733643 4.9107175,18.375776 4.6655913,17.983342 4.4352445,17.534628 4.2108875,17.098865 4.0525235,16.626059 3.9528103,16.082403 3.8630675,15.587598 3.8261191,15.057941 3.8071688,14.373252 c -0.00698,-0.265876 9.999e-4,-0.542704 0,-0.846576 -0.00299,-0.291779 -0.00698,-3.6120717 0,-3.8769386 C 3.8271095,8.9650963 3.8630675,8.4363718 3.9528103,7.9386345 4.0505332,7.3989208 4.2108875,6.9271617 4.4352445,6.4893894 4.6655913,6.0406279 4.9280966,5.6732957 5.2890675,5.3164862 5.6510384,4.9566675 6.0638514,4.653319 6.5185552,4.4244387 6.964279,4.1995485 7.4429135,4.0480504 7.9913406,3.9510988 8.492906,3.8611465 9.0104317,3.8163513 9.7263837,3.796363 c 1.0051593,-0.011999 4.2478603,-0.008 4.5480183,0 0.714972,0.018988 1.23244,0.064783 1.732006,0.1547358 0.550417,0.097952 1.029128,0.2494496 1.471842,0.4733399 0.456714,0.2298707 0.869527,0.5251248 1.23044,0.8829437 0.363009,0.3588093 0.6266,0.7322456 0.854957,1.1790074 0.227404,0.4407719 0.385768,0.912531 0.482424,1.4522447 0.09075,0.4987372 0.126749,1.0124728 0.145699,1.7111029 0.0079,0.2708663 0.01819,0.8663076 0.01819,1.0032456 -0.005,0.174934 -0.01448,0.316061 -0.03647,0.436048 z"
     fill="#ffffff"
     id="path64882"
     style="stroke-width:0.952279" />
</svg>
