<?xml version="1.0" encoding="UTF-8" standalone="no"?>
<svg
   id="vector"
   width="24"
   height="24"
   viewBox="0 0 36 36"
   version="1.1"
   sodipodi:docname="ticket.svg"
   inkscape:version="1.2.2 (732a01da63, 2022-12-09)"
   xmlns:inkscape="http://www.inkscape.org/namespaces/inkscape"
   xmlns:sodipodi="http://sodipodi.sourceforge.net/DTD/sodipodi-0.dtd"
   xmlns="http://www.w3.org/2000/svg"
   xmlns:svg="http://www.w3.org/2000/svg">
  <defs
     id="defs74600" />
  <sodipodi:namedview
     id="namedview74598"
     pagecolor="#ffffff"
     bordercolor="#000000"
     borderopacity="0.25"
     inkscape:showpageshadow="2"
     inkscape:pageopacity="0.0"
     inkscape:pagecheckerboard="0"
     inkscape:deskcolor="#d1d1d1"
     showgrid="false"
     inkscape:zoom="17.766058"
     inkscape:cx="27.862118"
     inkscape:cy="10.047249"
     inkscape:window-width="1920"
     inkscape:window-height="991"
     inkscape:window-x="-9"
     inkscape:window-y="-9"
     inkscape:window-maximized="1"
     inkscape:current-layer="vector" />
  <path
     fill="#ffffff"
     d="M 27,25.5 H 9 v -3 h 18 z m 0,-6 H 9 v -3 h 18 z m 0,-6 H 9 v -3 H 27 Z M 4.5,33 6.75,30.75 9,33 11.25,30.75 13.5,33 15.75,30.75 18,33 20.25,30.75 22.5,33 24.75,30.75 27,33 29.25,30.75 31.5,33 V 3 L 29.25,5.25 27,3 24.75,5.25 22.5,3 20.25,5.25 18,3 15.75,5.25 13.5,3 11.25,5.25 9,3 6.75,5.25 4.5,3 Z"
     id="path_0"
     style="stroke-width:1.5" />
</svg>
