<?xml version="1.0" encoding="UTF-8" standalone="no"?>
<svg
   viewBox="0 0 24 24"
   height="24"
   width="24"
   preserveAspectRatio="xMidYMid meet"
   class=""
   version="1.1"
   x="0px"
   y="0px"
   enable-background="new 0 0 24 24"
   xml:space="preserve"
   id="svg88216"
   sodipodi:docname="wallpaper.svg"
   inkscape:version="1.2.2 (732a01da63, 2022-12-09)"
   xmlns:inkscape="http://www.inkscape.org/namespaces/inkscape"
   xmlns:sodipodi="http://sodipodi.sourceforge.net/DTD/sodipodi-0.dtd"
   xmlns="http://www.w3.org/2000/svg"
   xmlns:svg="http://www.w3.org/2000/svg"><defs
   id="defs88220" /><sodipodi:namedview
   id="namedview88218"
   pagecolor="#ffffff"
   bordercolor="#000000"
   borderopacity="0.25"
   inkscape:showpageshadow="2"
   inkscape:pageopacity="0.0"
   inkscape:pagecheckerboard="0"
   inkscape:deskcolor="#d1d1d1"
   showgrid="false"
   inkscape:zoom="33.5"
   inkscape:cx="12"
   inkscape:cy="12.014925"
   inkscape:window-width="1920"
   inkscape:window-height="991"
   inkscape:window-x="-9"
   inkscape:window-y="-9"
   inkscape:window-maximized="1"
   inkscape:current-layer="svg88216" />
    <path
   fill="#ffffff"
   d="M 4.0224719,4.0224719 H 11.213483 V 2 H 4.0224719 C 2.8988764,2 2,2.8988764 2,4.0224719 V 11.213483 H 4.0224719 Z M 9.977528,13.011236 5.9325843,17.955056 H 17.955056 l -3.033708,-4.044944 -2.022472,2.69663 z M 16.94382,8.516854 c 0,-0.7865169 -0.674157,-1.4606742 -1.460674,-1.4606742 -0.786517,0 -1.460674,0.6741573 -1.460674,1.4606742 0,0.786517 0.674157,1.460674 1.460674,1.460674 0.786517,0 1.460674,-0.674157 1.460674,-1.460674 z M 19.977528,2 h -7.191011 v 2.0224719 h 7.191011 V 11.213483 H 22 V 4.0224719 C 22,2.8988764 21.101124,2 19.977528,2 Z m 0,17.977528 H 12.786517 V 22 h 7.191011 C 21.101124,22 22,21.101124 22,19.977528 V 12.786517 H 19.977528 Z M 4.0224719,12.786517 H 2 v 7.191011 C 2,21.101124 2.8988764,22 4.0224719,22 H 11.213483 V 19.977528 H 4.0224719 Z"
   id="path88214"
   style="stroke-width:1.1236">
    </path>
</svg>
