<?xml version="1.0" encoding="UTF-8" standalone="no"?>
<svg
   id="vector"
   width="24"
   height="24"
   viewBox="0 0 24 24"
   version="1.1"
   sodipodi:docname="warning_circle_outline.svg"
   inkscape:version="1.2.2 (732a01da63, 2022-12-09)"
   xmlns:inkscape="http://www.inkscape.org/namespaces/inkscape"
   xmlns:sodipodi="http://sodipodi.sourceforge.net/DTD/sodipodi-0.dtd"
   xmlns="http://www.w3.org/2000/svg"
   xmlns:svg="http://www.w3.org/2000/svg">
  <defs
     id="defs90164" />
  <sodipodi:namedview
     id="namedview90162"
     pagecolor="#ffffff"
     bordercolor="#000000"
     borderopacity="0.25"
     inkscape:showpageshadow="2"
     inkscape:pageopacity="0.0"
     inkscape:pagecheckerboard="0"
     inkscape:deskcolor="#d1d1d1"
     showgrid="false"
     inkscape:zoom="8.375"
     inkscape:cx="48"
     inkscape:cy="48.179104"
     inkscape:window-width="1920"
     inkscape:window-height="991"
     inkscape:window-x="-9"
     inkscape:window-y="-9"
     inkscape:window-maximized="1"
     inkscape:current-layer="vector" />
  <path
     style="color:#000000;fill:#ffffff;stroke-width:0;stroke-dasharray:none;fill-opacity:1"
     d="m 12,6.3945312 c -0.857649,0 -1.564453,0.706806 -1.564453,1.5644532 v 0.015625 l 0.002,0.017578 0.318359,4.7871095 v -0.0332 c 0,0.684963 0.559188,1.24414 1.244141,1.24414 0.684957,0 1.244141,-0.559186 1.244141,-1.24414 v 0.0332 l 0.320312,-4.8046876 v -0.015625 c 0,-0.85765 -0.706805,-1.5644532 -1.564453,-1.5644532 z m 0,1 c 0.332678,0 0.560915,0.2305395 0.5625,0.5625 l -0.318359,4.7714848 v 0.01758 c 0,0.123546 -0.120577,0.24414 -0.244141,0.24414 -0.123546,0 -0.244141,-0.120602 -0.244141,-0.24414 v -0.01758 L 11.4375,7.9570312 c 0.0016,-0.3319593 0.229822,-0.5625 0.5625,-0.5625 z"
     id="path_0" />
  <path
     style="color:#000000;fill:#ffffff;stroke-linecap:round;stroke-linejoin:round;stroke-width:0;stroke-dasharray:none;fill-opacity:1"
     d="M 12,1.5 C 6.2076923,1.5 1.5013422,6.2062337 1.5,11.998047 A 0.5,0.5 0 0 0 1.5,12 c 0,6.65e-4 -1e-7,0.0013 0,0.002 a 0.5,0.5 0 0 0 0,0.002 C 1.5013422,17.795719 6.2076923,22.501953 12,22.501953 17.793638,22.501953 22.500819,17.793642 22.5,12 22.499738,6.2072723 17.792973,1.5 12,1.5 Z m 0,1 c 5.253149,0 9.500743,4.246847 9.5,9.5 a 0.50005,0.50005 0 0 0 0,0.002 c 7.43e-4,5.253153 -4.246851,9.5 -9.5,9.5 -5.2531494,0 -9.5007429,-4.246847 -9.5,-9.5 A 0.5,0.5 0 0 0 2.5,12 C 2.4992571,6.746847 6.7468506,2.5 12,2.5 Z"
     id="path_1" />
  <path
     style="color:#000000;fill:#ffffff;stroke-width:0;stroke-dasharray:none;fill-opacity:1"
     d="m 12,14.267578 c -0.377068,0 -0.761894,0.123637 -1.064453,0.392578 -0.302559,0.268941 -0.5,0.690313 -0.5,1.169922 0,0.47961 0.197441,0.902934 0.5,1.171875 0.302559,0.268941 0.687385,0.392578 1.064453,0.392578 0.377068,0 0.761894,-0.123637 1.064453,-0.392578 0.302559,-0.268941 0.5,-0.692265 0.5,-1.171875 0,-0.479609 -0.197441,-0.900981 -0.5,-1.169922 C 12.761894,14.391215 12.377068,14.267578 12,14.267578 Z m 0,1 c 0.154846,0 0.30206,0.053 0.398438,0.138672 0.09638,0.08567 0.166015,0.194219 0.166015,0.423828 0,0.22961 -0.06964,0.340113 -0.166015,0.425781 -0.09638,0.08567 -0.243592,0.138672 -0.398438,0.138672 -0.154846,0 -0.30206,-0.053 -0.398437,-0.138672 -0.09638,-0.08567 -0.166016,-0.196171 -0.166016,-0.425781 0,-0.229609 0.06964,-0.33816 0.166016,-0.423828 C 11.69794,15.320582 11.845154,15.267578 12,15.267578 Z"
     id="path_2" />
</svg>
