<?xml version="1.0" encoding="UTF-8" standalone="no"?>
<svg
   id="vector"
   width="22.933001"
   height="21.094"
   viewBox="0 0 22.933001 21.094"
   version="1.1"
   sodipodi:docname="warning_rounded.svg"
   xmlns:inkscape="http://www.inkscape.org/namespaces/inkscape"
   xmlns:sodipodi="http://sodipodi.sourceforge.net/DTD/sodipodi-0.dtd"
   xmlns="http://www.w3.org/2000/svg"
   xmlns:svg="http://www.w3.org/2000/svg">
  <defs
     id="defs39957" />
  <sodipodi:namedview
     id="namedview39955"
     pagecolor="#ffffff"
     bordercolor="#000000"
     borderopacity="0.25"
     inkscape:showpageshadow="2"
     inkscape:pageopacity="0.0"
     inkscape:pagecheckerboard="0"
     inkscape:deskcolor="#d1d1d1"
     showgrid="false" />
  <path
     fill="#ffffff"
     d="m 2.765,21.094 h 17.403 c 0.562,0 1.05,-0.125 1.465,-0.375 0.421,-0.25 0.742,-0.586 0.96,-1.008 0.227,-0.414 0.34,-0.875 0.34,-1.383 0,-0.234 -0.031,-0.465 -0.093,-0.691 -0.055,-0.227 -0.145,-0.45 -0.27,-0.668 L 13.851,1.406 C 13.593,0.937 13.25,0.586 12.82,0.352 12.39,0.117 11.941,0 11.472,0 11.004,0 10.551,0.117 10.113,0.352 9.683,0.586 9.34,0.937 9.082,1.406 L 0.375,16.98 C 0.125,17.426 0,17.875 0,18.328 c 0,0.508 0.113,0.969 0.34,1.383 0.226,0.422 0.546,0.758 0.961,1.008 0.414,0.25 0.902,0.375 1.464,0.375 z m 8.707,-7.512 c -0.632,0 -0.957,-0.324 -0.972,-0.973 L 10.347,6.82 C 10.34,6.508 10.437,6.25 10.64,6.047 10.851,5.836 11.125,5.73 11.461,5.73 c 0.336,0 0.609,0.106 0.82,0.317 0.211,0.211 0.316,0.473 0.316,0.785 l -0.164,5.777 c -0.015,0.649 -0.336,0.973 -0.961,0.973 z m 0,3.773 c -0.351,0 -0.656,-0.117 -0.914,-0.351 -0.257,-0.235 -0.386,-0.524 -0.386,-0.867 0,-0.352 0.129,-0.645 0.386,-0.879 0.258,-0.242 0.563,-0.364 0.914,-0.364 0.36,0 0.668,0.118 0.926,0.352 0.258,0.234 0.387,0.531 0.387,0.891 0,0.351 -0.133,0.644 -0.399,0.879 -0.257,0.226 -0.562,0.339 -0.914,0.339 z"
     id="path_0" />
</svg>
