<?xml version="1.0" encoding="UTF-8" standalone="no"?>
<svg
   id="vector"
   width="24"
   height="24"
   viewBox="0 0 24 24"
   version="1.1"
   sodipodi:docname="warning_rounded.svg"
   inkscape:version="1.2.2 (732a01da63, 2022-12-09)"
   xmlns:inkscape="http://www.inkscape.org/namespaces/inkscape"
   xmlns:sodipodi="http://sodipodi.sourceforge.net/DTD/sodipodi-0.dtd"
   xmlns="http://www.w3.org/2000/svg"
   xmlns:svg="http://www.w3.org/2000/svg">
  <defs
     id="defs6" />
  <sodipodi:namedview
     id="namedview4"
     pagecolor="#ffffff"
     bordercolor="#000000"
     borderopacity="0.25"
     inkscape:showpageshadow="2"
     inkscape:pageopacity="0.0"
     inkscape:pagecheckerboard="0"
     inkscape:deskcolor="#d1d1d1"
     showgrid="false"
     inkscape:zoom="20.1"
     inkscape:cx="11.741294"
     inkscape:cy="10.572139"
     inkscape:window-width="1920"
     inkscape:window-height="991"
     inkscape:window-x="-9"
     inkscape:window-y="-9"
     inkscape:window-maximized="1"
     inkscape:current-layer="vector" />
  <path
     fill="#ffffff"
     d="M 4.4113723,21.198198 H 19.588628 c 0.490123,0 0.915711,-0.109014 1.277635,-0.32704 0.367156,-0.218026 0.647102,-0.511054 0.837221,-0.879083 C 21.901452,19.631024 22,19.228983 22,18.785953 22,18.581881 21.97296,18.380424 21.91889,18.183328 21.87092,17.98536 21.792435,17.790881 21.683422,17.600762 L 14.079536,4.0281806 C 13.854533,3.619163 13.555401,3.3130539 13.180395,3.1089812 12.80539,2.9040364 12.413814,2.802 12.004797,2.802 c -0.408146,0 -0.80321,0.1020364 -1.185192,0.3069812 C 10.4446,3.3130539 10.145467,3.619163 9.920464,4.0281806 L 2.3270396,17.610355 C 2.1090132,17.999314 2,18.390889 2,18.785953 c 0,0.44303 0.098548,0.845071 0.2965159,1.206122 0.1970959,0.368029 0.4761698,0.661057 0.8380936,0.879083 0.3610518,0.218026 0.7866394,0.32704 1.2767628,0.32704 z M 12.004797,14.64694 c -0.551171,0 -0.834606,-0.282563 -0.847687,-0.848559 L 11.023678,8.7497609 c -0.0061,-0.272097 0.07849,-0.4971003 0.255527,-0.6741377 0.184014,-0.1840143 0.422971,-0.2764575 0.715998,-0.2764575 0.293028,0 0.531113,0.092443 0.715127,0.2764575 0.184014,0.1840143 0.275585,0.412506 0.275585,0.6846029 L 12.84289,13.798381 c -0.01308,0.565996 -0.293027,0.848559 -0.838093,0.848559 z m 0,3.290454 c -0.306109,0 -0.572102,-0.102036 -0.797105,-0.306109 -0.224131,-0.204945 -0.336633,-0.456983 -0.336633,-0.756115 0,-0.306982 0.112502,-0.562509 0.336633,-0.766581 0.225003,-0.21105 0.490996,-0.317447 0.797105,-0.317447 0.313958,0 0.582566,0.102909 0.807569,0.306981 0.225004,0.204073 0.337505,0.463089 0.337505,0.777047 0,0.306109 -0.11599,0.561636 -0.34797,0.766581 -0.224131,0.197095 -0.490123,0.295643 -0.797104,0.295643 z"
     id="path_0"
     style="stroke-width:0.872106" />
</svg>
