<?xml version="1.0" encoding="UTF-8" standalone="no"?>
<svg
   id="vector"
   width="24"
   height="24"
   viewBox="0 0 24 24"
   version="1.1"
   sodipodi:docname="whatsapp_logo.svg"
   inkscape:version="1.2.2 (732a01da63, 2022-12-09)"
   xmlns:inkscape="http://www.inkscape.org/namespaces/inkscape"
   xmlns:sodipodi="http://sodipodi.sourceforge.net/DTD/sodipodi-0.dtd"
   xmlns="http://www.w3.org/2000/svg"
   xmlns:svg="http://www.w3.org/2000/svg">
  <defs
     id="defs2667" />
  <sodipodi:namedview
     id="namedview2665"
     pagecolor="#ffffff"
     bordercolor="#000000"
     borderopacity="0.25"
     inkscape:showpageshadow="2"
     inkscape:pageopacity="0.0"
     inkscape:pagecheckerboard="0"
     inkscape:deskcolor="#d1d1d1"
     showgrid="false"
     inkscape:zoom="4.1875"
     inkscape:cx="23.880597"
     inkscape:cy="61.014925"
     inkscape:window-width="1920"
     inkscape:window-height="991"
     inkscape:window-x="-9"
     inkscape:window-y="-9"
     inkscape:window-maximized="1"
     inkscape:current-layer="vector" />
  <path
     fill="#ffffff"
     d="M 21.889737,11.549054 C 21.796264,8.9953701 20.721316,6.5760019 18.889738,4.7970549 17.057738,3.0176867 14.611001,2.0155816 12.059002,2.0000027 H 12.01016 C 10.291423,1.9987395 8.60216,2.4458973 7.1086865,3.2972656 5.615213,4.1482129 4.3684763,5.373897 3.4914238,6.8538967 2.6143713,8.3343175 2.1368976,10.017265 2.1065818,11.738107 c -0.030737,1.720841 0.3869474,3.42021 1.2109473,4.930525 l -0.8753684,5.245052 c -0.00126,0.01053 -4.21e-4,0.02147 0.00295,0.032 0.00295,0.01053 0.008,0.01979 0.015158,0.02821 0.00716,0.008 0.016,0.01474 0.026105,0.01937 0.00968,0.0042 0.020211,0.0067 0.031158,0.0067 h 0.015158 l 5.1797889,-1.154105 c 1.3376841,0.642947 2.8025261,0.976421 4.2863151,0.976 0.09432,0 0.189053,0 0.283369,0 1.305263,-0.03705 2.590736,-0.333053 3.781473,-0.870737 1.190736,-0.537263 2.263578,-1.305263 3.156631,-2.259789 0.893052,-0.954947 1.58821,-2.077053 2.046315,-3.301894 0.457685,-1.225263 0.669053,-2.529263 0.621053,-3.83621 z m -9.654735,8.550315 c -0.07832,0 -0.15579,0 -0.234106,0 -1.311578,0 -2.6042098,-0.31579 -3.7688412,-0.920842 L 7.9663706,19.04379 4.4535289,19.874948 5.1019499,16.31579 4.950371,16.060632 C 4.2312132,14.832843 3.8442658,13.438317 3.8265816,12.015159 3.8093185,10.592001 4.1621605,9.1886332 4.8510026,7.9435807 5.5398446,6.6985282 6.5406866,5.654739 7.7545812,4.9145286 8.9688968,4.1747392 10.354581,3.764213 11.775212,3.7237919 h 0.237895 c 2.144842,0.00632 4.201263,0.856421 5.726315,2.3671576 1.525474,1.5103155 2.397052,3.5604205 2.426947,5.7086305 0.03032,2.147789 -0.783158,4.221894 -2.264842,5.774736 -1.482105,1.553263 -3.513684,2.461053 -5.657683,2.528 z"
     id="path_0"
     style="stroke-width:0.421053" />
  <path
     fill="#ffffff"
     d="m 8.5613179,7.1153703 c -0.1221052,0.00295 -0.2429473,0.029895 -0.3545263,0.08 C 8.0952127,7.2454755 7.9945811,7.3170545 7.9112127,7.4067387 7.6754233,7.6484229 7.016055,8.2307386 6.9777392,9.4530542 6.9394234,10.67537 7.7937391,11.885054 7.913318,12.054317 c 0.1191579,0.169684 1.6328419,2.810105 4.125894,3.881263 1.465263,0.631158 2.107368,0.739789 2.52421,0.739789 0.171369,0 0.301053,-0.01811 0.436211,-0.0261 0.456842,-0.02821 1.487579,-0.556211 1.712421,-1.130105 0.224842,-0.574316 0.24,-1.071158 0.181473,-1.177263 -0.0581,-0.106527 -0.222736,-0.172632 -0.467368,-0.301053 -0.245053,-0.128842 -1.446316,-0.770947 -1.671158,-0.861473 -0.08421,-0.03916 -0.174736,-0.06274 -0.266947,-0.06905 -0.06021,0.0034 -0.118316,0.02105 -0.170105,0.05179 -0.05137,0.03074 -0.09474,0.07369 -0.125895,0.124632 -0.200842,0.250105 -0.661474,0.792842 -0.816,0.949474 -0.03368,0.03916 -0.07537,0.07074 -0.122105,0.09221 -0.04674,0.0219 -0.09768,0.03368 -0.149053,0.03453 -0.09474,-0.0042 -0.187368,-0.02905 -0.271158,-0.07326 -0.727999,-0.309068 -1.391578,-0.751595 -1.957052,-1.304858 -0.527579,-0.518737 -0.9747367,-1.112842 -1.3275787,-1.763368 -0.1376842,-0.253053 0,-0.383579 0.1246315,-0.501895 0.1242105,-0.118315 0.2568421,-0.282105 0.3852632,-0.423578 0.105684,-0.122527 0.193263,-0.259369 0.260632,-0.4063163 0.03537,-0.067789 0.05305,-0.1431578 0.05179,-0.2193684 C 10.370581,9.5941068 10.35037,9.5195805 10.312897,9.4530542 10.254791,9.3275805 9.811002,8.0829491 9.6042652,7.585265 9.4307915,7.1658966 9.235002,7.1515808 9.05816,7.1385282 8.9137389,7.1284229 8.7482653,7.1233703 8.5823705,7.1187387 h -0.021053"
     id="path_1"
     style="stroke-width:0.421053" />
</svg>
